<?xml version="1.0" encoding="UTF-8"?>
<svg id="Layer_1" data-name="Layer 1" xmlns="http://www.w3.org/2000/svg" viewBox="0 0 791.13 416.86">
  <defs>
    <style>
      .cls-1 {
        fill: #19202c;
      }

      .cls-1, .cls-2 {
        stroke-width: 0px;
      }

      .cls-2 {
        fill: #fbf1ef;
      }
    </style>
  </defs>
  <rect class="cls-2" width="791.13" height="416.86" rx="37.04" ry="37.04"/>
  <g>
    <path class="cls-1" d="M420.77,233.64c-.19.06-.24.09-.3.1-5.33.29-5.29.28-7.06-4.78-4.72-13.43-9.48-26.85-14.23-40.29-.11-.31-.27-.6-.48-1.06-.21.38-.4.62-.5.88-5.14,14.52-10.3,29.04-15.4,43.57-.46,1.29-1.05,1.78-2.46,1.74-3.83-.11-3.8-.05-5.08-3.65-6.13-17.34-12.25-34.69-18.42-52.03-1.06-2.99-2.27-5.91-4.81-8.04-.37-.31-.4-1.02-.67-1.78h20.22c-.19.66-.18,1.44-.57,1.86-1.4,1.49-1.82,3.23-1.26,5.08,1.13,3.76,2.36,7.51,3.65,11.21,3.17,9.1,6.4,18.19,9.61,27.28.05.16.15.3.38.72,1.1-3.08,2.14-5.95,3.17-8.82,2.9-8.14,5.81-16.28,8.64-24.45.27-.77.25-1.95-.17-2.6-1.71-2.7-3.64-5.26-5.45-7.9-.45-.66-.73-1.41-1.29-2.52h7.2c2.67,0,5.34.1,8-.04,1.46-.08,2.12.36,2.62,1.76,4.49,12.87,9.05,25.71,13.6,38.57.68,1.93,1.37,3.84,2.2,6.18,1.35-3.78,2.56-7.18,3.75-10.56,3.17-8.98,6.35-17.97,9.49-26.97.33-.93.66-1.99.53-2.92-.18-1.31-.78-2.56-1.23-3.82-.23-.65-.54-1.27-.89-2.1h11.6c-.1.67,0,1.41-.31,1.75-3.02,3.2-4.07,7.34-5.48,11.28-6.22,17.43-12.4,34.88-18.6,52.36h0Z"/>
    <path class="cls-1" d="M180.13,195.46c3.08-7.71,5.97-10.21,11.44-10.02,6.52.22,11.05,3.87,13.21,10.82.34-1.05.6-1.94.89-2.81,2.36-6.75,7.63-9.43,14.46-7.36,5.75,1.75,9.17,5.88,9.33,11.95.21,7.77.09,15.56.15,23.33,0,1.72.09,3.44.26,5.15.19,1.98.83,3.75,2.32,5.2.43.42.54,1.18.85,1.95h-20.41c.28-.74.34-1.5.74-1.86,1.71-1.53,2.39-3.5,2.47-5.64.17-4.88.21-9.77.21-14.66,0-4.61-.06-9.22-.21-13.83-.04-1.13-.37-2.32-.83-3.36-1.42-3.16-5.67-3.65-7.55-.66-1.19,1.9-2.09,4.31-2.16,6.51-.26,8.77-.18,17.53-.13,26.31,0,1.99.8,3.75,2.27,5.21.44.44.59,1.16.96,1.97h-20.47c.3-.75.39-1.53.81-1.93,1.62-1.52,2.35-3.46,2.37-5.52.1-9.5.07-19,.02-28.49,0-.97-.33-1.97-.65-2.91-.58-1.71-1.74-2.85-3.59-3.04-1.93-.19-3.77.48-4.47,2.24-.97,2.49-1.93,5.16-2,7.78-.22,8.37-.14,16.76.12,25.14.05,1.59,1.39,3.14,2.13,4.71.28.6.57,1.18.95,2h-20.43c.26-.72.31-1.48.7-1.85,1.83-1.68,2.46-3.86,2.51-6.16.18-8.11.25-16.22.29-24.33,0-2.39-.63-4.58-2.59-6.24-.91-.77-.9-1.72.3-2.39,3.96-2.24,7.89-4.54,11.86-6.74,1.79-.99,3.74.23,3.82,2.4.08,2.26.02,4.53.02,7.1h0Z"/>
    <path class="cls-1" d="M562.33,186.68c-.15-2.1-.06-4.08-.48-5.94-.3-1.33-1.13-2.61-1.99-3.72-1-1.3-1.05-2.1.33-2.9,3.79-2.18,7.59-4.37,11.41-6.53,1.83-1.03,3.76,0,3.97,2.1.06.61.04,1.22.04,1.83,0,16.83-.02,33.66.03,50.49,0,2.09.19,4.23.65,6.26.28,1.22,1.27,2.26,1.91,3.42.32.58.57,1.18.98,2.06-2.27,0-4.15.03-6.03,0-5.21-.09-10.46.1-15.65-.39-6.66-.63-12.85-2.76-17.26-8.2-6.26-7.71-5.82-20.72.89-28.56,5.27-6.17,12.13-9.12,20.07-9.85.27-.02.54-.04,1.12-.09h0ZM562.05,230.73v-39.8c-.59.14-1.17.23-1.73.43-3.75,1.36-6.42,3.99-8.07,7.51-3.89,8.33-3.81,16.88-.51,25.33,1.73,4.42,5.83,6.82,10.3,6.53h0Z"/>
    <path class="cls-1" d="M119.87,233.77c.33-.86.4-1.61.8-1.99,1.82-1.69,2.38-3.87,2.48-6.17.16-3.6.15-7.22.16-10.83.02-11.56.03-23.1-.02-34.66,0-2.05-.14-4.12-.58-6.11-.28-1.28-1.23-2.41-1.87-3.62-.32-.62-.61-1.24-1.08-2.23h2.28c8.33,0,16.66.07,24.99-.03,3.85-.05,7.7-.43,11.63-.66.49,6.38.98,13.01,1.5,19.75-.62.07-1.07.12-1.46.16-1.01-2.77-1.91-5.45-2.96-8.06-1.88-4.68-5.41-7.18-10.41-7.56-2.76-.21-5.52-.35-8.41-.53v25.46c2.85-.28,5.72-.33,8.48-.89,2.4-.5,3.34-2.62,3.68-4.86.16-1,.47-1.55,1.77-1.5,1.24,5.04,2.5,10.17,3.76,15.29-.15.16-.3.32-.45.48-.56-.3-1.3-.47-1.64-.92-2.29-3.11-5.39-4.51-9.18-4.54-2.1,0-4.21,0-6.43,0v30.8c4.53-.12,9.02.32,13.41-.98,3.61-1.07,5.48-3.81,6.56-7.18.71-2.21,1.33-4.46,1.84-6.73.22-.99.57-1.38,1.69-1.06v19.99c-.51,0-1.03.05-1.55,0-2.3-.26-4.61-.78-6.91-.8-9.94-.09-19.89-.04-29.82-.04h-2.28l.02.03Z"/>
    <path class="cls-1" d="M589.63,201.21v-12.48c.17-.09.31-.25.45-.24,4.56.43,8.71-1.38,13.02-2.32,3.45-.75,6.91-1.08,10.36-.07,5.34,1.56,8.82,5.9,9.38,11.7.66,6.68,1.3,13.36,1.94,20.04.24,2.47,1.04,4.62,3.15,6.16,1.01.73.93,1.83-.13,2.55-3.75,2.57-7.51,5.14-11.29,7.67-1.65,1.1-3.71.17-3.98-1.85-.36-2.69-.54-5.41-.83-8.5-.37,1.01-.64,1.73-.89,2.45-2.31,6.43-7.75,9.62-14.52,8.63-6.71-.98-11.77-4.17-14.31-10.65-2.21-5.67-.29-11.19,4.85-14.47,3.51-2.25,7.51-3.26,11.48-4.29,3.79-.98,7.59-1.94,11.57-2.95-.35-2.05-.54-3.97-1.01-5.84-1.18-4.66-4.91-6.29-9.22-4.11-3.43,1.75-5.69,4.69-7.85,7.74-.4.56-1.13.86-1.72,1.29-.15-.16-.29-.32-.44-.48h.01ZM609.99,205.57c-.9.28-1.61.44-2.24.71-3.24,1.4-6.7,2.45-9.62,4.35-3.67,2.38-4.67,6.35-4.08,10.57.59,4.21,3.28,6.76,7.18,8.13,1.54.55,3.07.52,4.43-.54,3.36-2.59,5.29-6.19,5.43-10.25.15-4.22-.68-8.47-1.09-12.98h0Z"/>
    <path class="cls-1" d="M534.22,209.73c-.06,6.76-1.31,12.56-5.28,17.43-5.06,6.21-11.95,8.15-19.62,7.89-9.92-.34-17.54-5.76-20.74-14.75-2.17-6.14-2.23-12.4-.55-18.67,1.36-5.05,4.04-9.23,8.44-12.17,4.95-3.32,10.53-4.31,16.36-3.89,5.28.39,10.1,2.11,14.01,5.82,5.44,5.15,7.32,11.71,7.37,18.35h0ZM522.73,221.99c-.53-10.51-3.1-19.05-8.44-26.67-1.74-2.47-3.77-4.69-6.59-5.96-3.21-1.45-5.94-.53-7.55,2.58-1.57,3.01-1.84,6.28-1.58,9.57.65,8.04,3.04,15.55,7.44,22.34,1.98,3.05,4.27,5.85,7.69,7.4,3.18,1.43,6.18.48,7.44-2.76.94-2.43,1.26-5.1,1.59-6.5h0Z"/>
    <path class="cls-1" d="M485.16,210.44c.09,6.05-1.18,11.72-5.03,16.53-5.4,6.74-12.8,8.63-21.01,7.98-7.32-.59-13.28-3.74-17.29-10.09-2.94-4.66-3.92-9.84-3.84-15.27.06-3.74.62-7.4,2.07-10.88,2.7-6.42,7.46-10.49,14.17-12.26,6.03-1.59,12.02-1.48,17.75,1.09,8.59,3.86,12.35,11.03,13.15,20.06.08.93,0,1.89,0,2.83h.02ZM473.78,221.84c-.52-10.01-2.93-18.16-7.74-25.52-1.78-2.71-3.86-5.17-6.8-6.72-3.6-1.9-7.09-.8-8.34,3.06-.86,2.69-1.37,5.66-1.24,8.47.39,8.3,2.99,15.99,7.55,22.96,1.9,2.9,4.1,5.54,7.36,7.06,3.39,1.58,6.48.57,7.75-2.91.88-2.4,1.17-5.02,1.47-6.39Z"/>
    <path class="cls-1" d="M285.88,249.7v-10.63c2.75-.37,5.26-.46,7.63-1.08,2.31-.61,4.53-1.66,6.7-2.71.91-.44,1.27-1.31.73-2.52-5.52-12.4-10.89-24.87-16.51-37.23-1.11-2.45-3.12-4.51-4.67-6.77-.34-.5-.46-1.13-.75-1.9h20.32c-.24.72-.26,1.47-.66,1.87-1.49,1.52-1.64,3.34-1,5.1,1.27,3.53,2.74,7.01,4.21,10.47,1.76,4.13,3.61,8.22,5.43,12.32.22.49.47.95.84,1.74,1.85-4.16,3.58-8.02,5.26-11.91,1.63-3.76,3.3-7.51,4.79-11.33.89-2.28,1.27-4.63-.85-6.63-.31-.3-.23-1.01-.35-1.65h12.25c-.2.68-.19,1.52-.6,1.87-2.38,2-3.76,4.64-4.98,7.38-5.67,12.7-11.21,25.45-16.99,38.1-3.25,7.11-8.5,12.26-16.07,14.74-1.2.4-2.49.53-3.74.74-.37.06-.75,0-1.01,0v.03Z"/>
    <path class="cls-1" d="M650.63,233.71h-20.37c.15-.66.1-1.45.46-1.77,2.19-1.9,2.71-4.48,2.74-7.09.12-14.17.11-28.33.14-42.49,0-2.22-.74-4.11-2.44-5.61-1.01-.89-.91-1.83.24-2.48,3.94-2.27,7.89-4.53,11.85-6.75,1.53-.86,3.35,0,3.7,1.74.15.69.15,1.43.15,2.15,0,16.78,0,33.56.02,50.33,0,1.99.06,4.02.47,5.96.29,1.34,1.21,2.55,1.86,3.81.33.63.68,1.24,1.19,2.2h0Z"/>
    <path class="cls-1" d="M257.56,233.69c.25-.73.27-1.52.67-1.88,1.99-1.81,2.52-4.22,2.55-6.65.16-14.16.21-28.31.25-42.47,0-2.28-.68-4.36-2.5-5.95-1.03-.9-.92-1.83.24-2.49,3.94-2.27,7.88-4.53,11.85-6.74,1.58-.88,3.47.1,3.77,1.9.1.6.06,1.22.06,1.83,0,16.99,0,33.98.02,50.97,0,1.82.05,3.69.48,5.44.34,1.39,1.28,2.63,1.95,3.95.31.63.6,1.26.98,2.09h-20.31Z"/>
    <path class="cls-1" d="M671.36,233.71h-20.34c.2-.7.17-1.5.55-1.84,2.23-2.04,2.6-4.73,2.64-7.46.12-8.16.15-16.32.2-24.48.03-5.33.03-10.66.07-15.99.02-2.8-.42-5.39-2.72-7.38-.85-.73-.73-1.68.36-2.29,4-2.27,7.98-4.58,12-6.81,1.47-.82,3.37.19,3.67,1.89.11.6.06,1.22.06,1.83,0,17.16-.02,34.31.03,51.47,0,1.87.19,3.77.63,5.59.28,1.18,1.15,2.21,1.75,3.32.33.62.65,1.24,1.12,2.15h0Z"/>
    <path class="cls-1" d="M255.99,233.72h-20.37c.24-.73.26-1.53.66-1.91,1.78-1.64,2.43-3.77,2.49-6,.19-8.22.26-16.44.3-24.66,0-2.33-.64-4.48-2.53-6.1-.92-.79-.99-1.72.2-2.4,4.04-2.31,8.08-4.64,12.15-6.9,1.37-.76,3.19.26,3.52,1.92.12.59.08,1.21.08,1.83,0,11.06-.03,22.11.04,33.17,0,2.04.28,4.1.74,6.08.25,1.06,1.18,1.95,1.77,2.94.33.56.56,1.18.96,2.04h0Z"/>
    <path class="cls-1" d="M238.14,174.4c.1-2.24,1.5-4.78,4.31-6.4,3.74-2.15,8.29.03,9.07,4.29.83,4.57-2.15,9.28-6.25,9.87-4.06.58-7.16-2.36-7.13-7.76h0Z"/>
  </g>
</svg>