<?xml version="1.0" encoding="UTF-8"?>
<svg id="Layer_1" data-name="Layer 1" xmlns="http://www.w3.org/2000/svg" viewBox="0 0 2650.87 2056.84">
  <defs>
    <style>
      .cls-1 {
        stroke: #f7e4e0;
      }

      .cls-1, .cls-2 {
        fill: none;
        stroke-miterlimit: 0;
        stroke-width: 5.3px;
      }

      .cls-2 {
        stroke: #005eff;
      }

      .cls-3 {
        fill: #f7e4e0;
      }

      .cls-3, .cls-4, .cls-5, .cls-6 {
        stroke-width: 0px;
      }

      .cls-4 {
        fill: #19202c;
      }

      .cls-5 {
        fill: #fbf1ef;
      }

      .cls-6 {
        fill: #005eff;
      }
    </style>
  </defs>
  <rect class="cls-4" x="1369.93" y="1217.03" width="796.89" height="419.9" rx="37.31" ry="37.31"/>
  <rect class="cls-6" x="406.56" y="1443.8" width="193.13" height="193.13"/>
  <rect class="cls-3" x="862.67" y="1443.8" width="193.13" height="193.13"/>
  <g>
    <path class="cls-5" d="M1793.77,1452.37c-.19.06-.24.09-.3.1-5.37.29-5.33.28-7.11-4.81-4.75-13.53-9.55-27.05-14.33-40.58-.11-.31-.27-.6-.48-1.07-.21.38-.4.62-.5.89-5.18,14.63-10.38,29.25-15.51,43.89-.46,1.3-1.06,1.79-2.48,1.75-3.86-.11-3.83-.05-5.12-3.68-6.17-17.47-12.34-34.94-18.55-52.41-1.07-3.01-2.29-5.95-4.85-8.1-.37-.31-.4-1.03-.67-1.79h20.37c-.19.66-.18,1.45-.57,1.87-1.41,1.5-1.83,3.25-1.27,5.12,1.14,3.79,2.38,7.56,3.68,11.29,3.19,9.17,6.45,18.32,9.68,27.48.05.16.15.3.38.73,1.11-3.1,2.16-5.99,3.19-8.88,2.92-8.2,5.85-16.4,8.7-24.63.27-.78.25-1.96-.17-2.62-1.72-2.72-3.67-5.3-5.49-7.96-.45-.66-.74-1.42-1.3-2.54,2.81,0,5.03,0,7.25,0,2.69,0,5.38.1,8.06-.04,1.47-.08,2.14.36,2.64,1.77,4.52,12.96,9.12,25.9,13.7,38.85.68,1.94,1.38,3.87,2.22,6.23,1.36-3.81,2.58-7.23,3.78-10.64,3.19-9.05,6.4-18.1,9.56-27.17.33-.94.66-2,.53-2.94-.18-1.32-.79-2.58-1.24-3.85-.23-.65-.54-1.28-.9-2.12h11.68c-.1.67.01,1.42-.31,1.76-3.04,3.22-4.1,7.39-5.52,11.36-6.27,17.56-12.49,35.13-18.74,52.74Z"/>
    <path class="cls-5" d="M1551.38,1413.91c3.1-7.77,6.01-10.28,11.52-10.09,6.57.22,11.13,3.9,13.31,10.9.34-1.06.6-1.95.9-2.83,2.38-6.8,7.69-9.5,14.57-7.41,5.79,1.76,9.24,5.92,9.4,12.04.21,7.83.09,15.67.15,23.5.01,1.73.09,3.47.26,5.19.19,1.99.84,3.78,2.34,5.24.43.42.54,1.19.86,1.96h-20.56c.28-.75.34-1.51.75-1.87,1.72-1.54,2.41-3.53,2.49-5.68.17-4.92.21-9.84.21-14.77,0-4.64-.06-9.29-.21-13.93-.04-1.14-.37-2.34-.84-3.38-1.43-3.18-5.71-3.68-7.61-.66-1.2,1.91-2.11,4.34-2.18,6.56-.26,8.83-.18,17.66-.13,26.5.01,2,.81,3.78,2.29,5.25.44.44.59,1.17.97,1.98h-20.62c.3-.76.39-1.54.82-1.94,1.63-1.53,2.37-3.49,2.39-5.56.1-9.57.07-19.14.02-28.7,0-.98-.33-1.98-.65-2.93-.58-1.72-1.75-2.87-3.62-3.06-1.94-.19-3.8.48-4.5,2.26-.98,2.51-1.94,5.2-2.01,7.84-.22,8.43-.14,16.88.12,25.32.05,1.6,1.4,3.16,2.15,4.74.28.6.57,1.19.96,2.01h-20.58c.26-.73.31-1.49.71-1.86,1.84-1.69,2.48-3.89,2.53-6.2.18-8.17.25-16.34.29-24.51.01-2.41-.63-4.61-2.61-6.29-.92-.78-.91-1.73.3-2.41,3.99-2.26,7.95-4.57,11.95-6.79,1.8-1,3.77.23,3.85,2.42.08,2.28.02,4.56.02,7.15Z"/>
    <path class="cls-5" d="M1936.36,1405.07c-.15-2.12-.06-4.11-.48-5.98-.3-1.34-1.14-2.63-2-3.75-1.01-1.31-1.06-2.12.33-2.92,3.82-2.2,7.65-4.4,11.49-6.58,1.84-1.04,3.79,0,4,2.12.06.61.04,1.23.04,1.84,0,16.95-.02,33.91.03,50.86,0,2.11.19,4.26.65,6.31.28,1.23,1.28,2.28,1.92,3.44.32.58.57,1.19.99,2.08-2.29,0-4.18.03-6.07,0-5.25-.09-10.54.1-15.76-.39-6.71-.63-12.94-2.78-17.39-8.26-6.31-7.77-5.86-20.87.9-28.77,5.31-6.21,12.22-9.19,20.22-9.92.27-.02.54-.04,1.13-.09ZM1936.07,1449.44v-40.09c-.59.14-1.18.23-1.74.43-3.78,1.37-6.47,4.02-8.13,7.56-3.92,8.39-3.84,17-.51,25.51,1.74,4.45,5.87,6.87,10.38,6.58Z"/>
    <path class="cls-5" d="M1490.67,1452.5c.33-.87.4-1.62.81-2,1.83-1.7,2.4-3.9,2.5-6.21.16-3.63.15-7.27.16-10.91.02-11.64.03-23.27-.02-34.91,0-2.06-.14-4.15-.58-6.15-.28-1.29-1.24-2.43-1.88-3.65-.32-.62-.61-1.25-1.09-2.25,1.1,0,1.7,0,2.3,0,8.39,0,16.78.07,25.17-.03,3.88-.05,7.76-.43,11.71-.66.49,6.43.99,13.1,1.51,19.89-.62.07-1.08.12-1.47.16-1.02-2.79-1.92-5.49-2.98-8.12-1.89-4.71-5.45-7.23-10.49-7.62-2.78-.21-5.56-.35-8.47-.53v25.65c2.87-.28,5.76-.33,8.54-.9,2.42-.5,3.36-2.64,3.71-4.9.16-1.01.47-1.56,1.78-1.51,1.25,5.08,2.52,10.24,3.79,15.4-.15.16-.3.32-.45.48-.56-.3-1.31-.47-1.65-.93-2.31-3.13-5.43-4.54-9.25-4.57-2.12-.01-4.24,0-6.48,0v31.02c4.56-.12,9.09.32,13.51-.99,3.64-1.08,5.52-3.84,6.61-7.23.72-2.23,1.34-4.49,1.85-6.78.22-1,.57-1.39,1.7-1.07v20.14c-.51,0-1.04.05-1.56,0-2.32-.26-4.64-.79-6.96-.81-10.01-.09-20.03-.04-30.04-.04-.61,0-1.22,0-2.3,0Z"/>
    <path class="cls-5" d="M1963.85,1419.71v-12.57c.17-.09.31-.25.45-.24,4.59.43,8.77-1.39,13.11-2.34,3.48-.76,6.96-1.09,10.44-.07,5.38,1.57,8.88,5.94,9.45,11.79.66,6.73,1.31,13.46,1.95,20.19.24,2.49,1.05,4.65,3.17,6.2,1.02.74.94,1.84-.13,2.57-3.78,2.59-7.56,5.18-11.37,7.73-1.66,1.11-3.74.17-4.01-1.86-.36-2.71-.54-5.45-.84-8.56-.37,1.02-.64,1.74-.9,2.47-2.33,6.48-7.81,9.69-14.63,8.69-6.76-.99-11.86-4.2-14.41-10.73-2.23-5.71-.29-11.27,4.89-14.58,3.54-2.27,7.56-3.28,11.56-4.32,3.82-.99,7.65-1.95,11.65-2.97-.35-2.06-.54-4-1.02-5.88-1.19-4.69-4.95-6.34-9.29-4.14-3.46,1.76-5.73,4.72-7.91,7.8-.4.56-1.14.87-1.73,1.3-.15-.16-.29-.32-.44-.48ZM1984.36,1424.1c-.91.28-1.62.44-2.26.72-3.26,1.41-6.75,2.47-9.69,4.38-3.7,2.4-4.7,6.4-4.11,10.65.59,4.24,3.3,6.81,7.23,8.19,1.55.55,3.09.52,4.46-.54,3.38-2.61,5.33-6.24,5.47-10.32.15-4.25-.68-8.53-1.1-13.07Z"/>
    <path class="cls-5" d="M1908.05,1428.29c-.06,6.81-1.32,12.65-5.32,17.56-5.1,6.26-12.04,8.21-19.76,7.95-9.99-.34-17.67-5.8-20.89-14.86-2.19-6.18-2.25-12.49-.55-18.81,1.37-5.09,4.07-9.3,8.5-12.26,4.99-3.34,10.61-4.34,16.48-3.92,5.32.39,10.17,2.13,14.11,5.86,5.48,5.19,7.37,11.8,7.42,18.48ZM1896.47,1440.63c-.53-10.59-3.12-19.19-8.5-26.86-1.75-2.49-3.8-4.72-6.64-6-3.23-1.46-5.98-.53-7.61,2.6-1.58,3.03-1.85,6.33-1.59,9.64.65,8.1,3.06,15.66,7.49,22.5,1.99,3.07,4.3,5.89,7.75,7.45,3.2,1.44,6.22.48,7.49-2.78.95-2.45,1.27-5.14,1.6-6.55Z"/>
    <path class="cls-5" d="M1858.62,1429c.09,6.09-1.19,11.81-5.07,16.65-5.44,6.79-12.89,8.69-21.16,8.04-7.37-.59-13.38-3.77-17.42-10.16-2.96-4.69-3.95-9.91-3.87-15.38.06-3.77.62-7.45,2.09-10.96,2.72-6.47,7.51-10.57,14.27-12.35,6.07-1.6,12.11-1.49,17.88,1.1,8.65,3.89,12.44,11.11,13.25,20.21.08.94.01,1.9.01,2.85ZM1847.17,1440.49c-.52-10.08-2.95-18.29-7.8-25.71-1.79-2.73-3.89-5.21-6.85-6.77-3.63-1.91-7.14-.81-8.4,3.08-.87,2.71-1.38,5.7-1.25,8.53.39,8.36,3.01,16.11,7.6,23.13,1.91,2.92,4.13,5.58,7.41,7.11,3.41,1.59,6.53.57,7.81-2.93.89-2.42,1.18-5.06,1.48-6.44Z"/>
    <path class="cls-5" d="M1657.89,1468.55v-10.71c2.77-.37,5.3-.46,7.69-1.09,2.33-.61,4.56-1.67,6.75-2.73.92-.44,1.28-1.32.74-2.54-5.56-12.49-10.97-25.05-16.63-37.5-1.12-2.47-3.14-4.54-4.7-6.82-.34-.5-.46-1.14-.76-1.91h20.47c-.24.73-.26,1.48-.66,1.88-1.5,1.53-1.65,3.36-1.01,5.14,1.28,3.56,2.76,7.06,4.24,10.55,1.77,4.16,3.64,8.28,5.47,12.41.22.49.47.96.85,1.75,1.86-4.19,3.61-8.08,5.3-12,1.64-3.79,3.32-7.56,4.82-11.41.9-2.3,1.28-4.66-.86-6.68-.31-.3-.23-1.02-.35-1.66h12.34c-.2.68-.19,1.53-.6,1.88-2.4,2.01-3.79,4.67-5.02,7.43-5.71,12.79-11.29,25.64-17.11,38.38-3.27,7.16-8.56,12.35-16.19,14.85-1.21.4-2.51.53-3.77.75-.37.06-.76,0-1.02,0Z"/>
    <path class="cls-5" d="M2025.31,1452.44h-20.52c.15-.66.1-1.46.46-1.78,2.21-1.91,2.73-4.51,2.76-7.14.12-14.27.11-28.54.14-42.8,0-2.24-.75-4.14-2.46-5.65-1.02-.9-.92-1.84.24-2.5,3.97-2.29,7.95-4.56,11.94-6.8,1.54-.87,3.37,0,3.73,1.75.15.7.15,1.44.15,2.17,0,16.9,0,33.8.02,50.7,0,2,.06,4.05.47,6,.29,1.35,1.22,2.57,1.87,3.84.33.63.68,1.25,1.2,2.22Z"/>
    <path class="cls-5" d="M1629.38,1452.42c.25-.74.27-1.53.67-1.89,2-1.82,2.54-4.25,2.57-6.7.16-14.26.21-28.52.25-42.78,0-2.3-.69-4.39-2.52-5.99-1.04-.91-.93-1.84.24-2.51,3.97-2.29,7.94-4.56,11.94-6.79,1.59-.89,3.5.1,3.8,1.91.1.6.06,1.23.06,1.84,0,17.11-.01,34.23.02,51.34,0,1.83.05,3.72.48,5.48.34,1.4,1.29,2.65,1.96,3.98.31.63.6,1.27.99,2.11h-20.45Z"/>
    <path class="cls-5" d="M2046.18,1452.44h-20.49c.2-.71.17-1.51.55-1.85,2.25-2.05,2.62-4.76,2.66-7.51.12-8.22.15-16.44.2-24.66.03-5.37.03-10.74.07-16.11.02-2.82-.42-5.43-2.74-7.43-.86-.74-.74-1.69.36-2.31,4.03-2.29,8.04-4.61,12.09-6.86,1.48-.83,3.39.19,3.7,1.9.11.6.06,1.23.06,1.84,0,17.28-.02,34.56.03,51.84,0,1.88.19,3.8.63,5.63.28,1.19,1.16,2.23,1.76,3.34.33.62.65,1.25,1.13,2.17Z"/>
    <path class="cls-5" d="M1627.78,1452.45h-20.52c.24-.74.26-1.54.66-1.92,1.79-1.65,2.45-3.8,2.51-6.04.19-8.28.26-16.56.3-24.84.01-2.35-.64-4.51-2.55-6.14-.93-.8-1-1.73.2-2.42,4.07-2.33,8.14-4.67,12.24-6.95,1.38-.77,3.21.26,3.55,1.93.12.59.08,1.22.08,1.84,0,11.14-.03,22.27.04,33.41.01,2.05.28,4.13.75,6.12.25,1.07,1.19,1.96,1.78,2.96.33.56.56,1.19.97,2.05Z"/>
    <path class="cls-5" d="M1609.8,1392.69c.1-2.26,1.51-4.81,4.34-6.45,3.77-2.17,8.35.03,9.14,4.32.84,4.6-2.17,9.35-6.3,9.94-4.09.58-7.21-2.38-7.18-7.82Z"/>
  </g>
  <rect class="cls-5" x="1372.66" y="1636.93" width="796.89" height="419.9" rx="37.31" ry="37.31"/>
  <g>
    <path class="cls-4" d="M1796.49,1872.27c-.19.06-.24.09-.3.1-5.37.29-5.33.28-7.11-4.81-4.75-13.53-9.55-27.05-14.33-40.58-.11-.31-.27-.6-.48-1.07-.21.38-.4.62-.5.89-5.18,14.63-10.38,29.25-15.51,43.89-.46,1.3-1.06,1.79-2.48,1.75-3.86-.11-3.83-.05-5.12-3.68-6.17-17.47-12.34-34.94-18.55-52.41-1.07-3.01-2.29-5.95-4.85-8.1-.37-.31-.4-1.03-.67-1.79h20.37c-.19.66-.18,1.45-.57,1.87-1.41,1.5-1.83,3.25-1.27,5.12,1.14,3.79,2.38,7.56,3.68,11.29,3.19,9.17,6.45,18.32,9.68,27.48.05.16.15.3.38.73,1.11-3.1,2.16-5.99,3.19-8.88,2.92-8.2,5.85-16.4,8.7-24.63.27-.78.25-1.96-.17-2.62-1.72-2.72-3.67-5.3-5.49-7.96-.45-.66-.74-1.42-1.3-2.54,2.81,0,5.03,0,7.25,0,2.69,0,5.38.1,8.06-.04,1.47-.08,2.14.36,2.64,1.77,4.52,12.96,9.12,25.9,13.7,38.85.68,1.94,1.38,3.87,2.22,6.23,1.36-3.81,2.58-7.23,3.78-10.64,3.19-9.05,6.4-18.1,9.56-27.17.33-.94.66-2,.53-2.94-.18-1.32-.79-2.58-1.24-3.85-.23-.65-.54-1.28-.9-2.12h11.68c-.1.67.01,1.42-.31,1.76-3.04,3.22-4.1,7.39-5.52,11.36-6.27,17.56-12.49,35.13-18.74,52.74Z"/>
    <path class="cls-4" d="M1554.1,1833.81c3.1-7.77,6.01-10.28,11.52-10.09,6.57.22,11.13,3.9,13.31,10.9.34-1.06.6-1.95.9-2.83,2.38-6.8,7.69-9.5,14.57-7.41,5.79,1.76,9.24,5.92,9.4,12.04.21,7.83.09,15.67.15,23.5.01,1.73.09,3.47.26,5.19.19,1.99.84,3.78,2.34,5.24.43.42.54,1.19.86,1.96h-20.56c.28-.75.34-1.51.75-1.87,1.72-1.54,2.41-3.53,2.49-5.68.17-4.92.21-9.84.21-14.77,0-4.64-.06-9.29-.21-13.93-.04-1.14-.37-2.34-.84-3.38-1.43-3.18-5.71-3.68-7.61-.66-1.2,1.91-2.11,4.34-2.18,6.56-.26,8.83-.18,17.66-.13,26.5.01,2,.81,3.78,2.29,5.25.44.44.59,1.17.97,1.98h-20.62c.3-.76.39-1.54.82-1.94,1.63-1.53,2.37-3.49,2.39-5.56.1-9.57.07-19.14.02-28.7,0-.98-.33-1.98-.65-2.93-.58-1.72-1.75-2.87-3.62-3.06-1.94-.19-3.8.48-4.5,2.26-.98,2.51-1.94,5.2-2.01,7.84-.22,8.43-.14,16.88.12,25.32.05,1.6,1.4,3.16,2.15,4.74.28.6.57,1.19.96,2.01h-20.58c.26-.73.31-1.49.71-1.86,1.84-1.69,2.48-3.89,2.53-6.2.18-8.17.25-16.34.29-24.51.01-2.41-.63-4.61-2.61-6.29-.92-.78-.91-1.73.3-2.41,3.99-2.26,7.95-4.57,11.95-6.79,1.8-1,3.77.23,3.85,2.42.08,2.28.02,4.56.02,7.15Z"/>
    <path class="cls-4" d="M1939.08,1824.97c-.15-2.12-.06-4.11-.48-5.98-.3-1.34-1.14-2.63-2-3.75-1.01-1.31-1.06-2.12.33-2.92,3.82-2.2,7.65-4.4,11.49-6.58,1.84-1.04,3.79,0,4,2.12.06.61.04,1.23.04,1.84,0,16.95-.02,33.91.03,50.86,0,2.11.19,4.26.65,6.31.28,1.23,1.28,2.28,1.92,3.44.32.58.57,1.19.99,2.08-2.29,0-4.18.03-6.07,0-5.25-.09-10.54.1-15.76-.39-6.71-.63-12.94-2.78-17.39-8.26-6.31-7.77-5.86-20.87.9-28.77,5.31-6.21,12.22-9.19,20.22-9.92.27-.02.54-.04,1.13-.09ZM1938.8,1869.34v-40.09c-.59.14-1.18.23-1.74.43-3.78,1.37-6.47,4.02-8.13,7.56-3.92,8.39-3.84,17-.51,25.51,1.74,4.45,5.87,6.87,10.38,6.58Z"/>
    <path class="cls-4" d="M1493.4,1872.4c.33-.87.4-1.62.81-2,1.83-1.7,2.4-3.9,2.5-6.21.16-3.63.15-7.27.16-10.91.02-11.64.03-23.27-.02-34.91,0-2.06-.14-4.15-.58-6.15-.28-1.29-1.24-2.43-1.88-3.65-.32-.62-.61-1.25-1.09-2.25,1.1,0,1.7,0,2.3,0,8.39,0,16.78.07,25.17-.03,3.88-.05,7.76-.43,11.71-.66.49,6.43.99,13.1,1.51,19.89-.62.07-1.08.12-1.47.16-1.02-2.79-1.92-5.49-2.98-8.12-1.89-4.71-5.45-7.23-10.49-7.62-2.78-.21-5.56-.35-8.47-.53v25.65c2.87-.28,5.76-.33,8.54-.9,2.42-.5,3.36-2.64,3.71-4.9.16-1.01.47-1.56,1.78-1.51,1.25,5.08,2.52,10.24,3.79,15.4-.15.16-.3.32-.45.48-.56-.3-1.31-.47-1.65-.93-2.31-3.13-5.43-4.54-9.25-4.57-2.12-.01-4.24,0-6.48,0v31.02c4.56-.12,9.09.32,13.51-.99,3.64-1.08,5.52-3.84,6.61-7.23.72-2.23,1.34-4.49,1.85-6.78.22-1,.57-1.39,1.7-1.07v20.14c-.51,0-1.04.05-1.56,0-2.32-.26-4.64-.79-6.96-.81-10.01-.09-20.03-.04-30.04-.04-.61,0-1.22,0-2.3,0Z"/>
    <path class="cls-4" d="M1966.58,1839.62v-12.57c.17-.09.31-.25.45-.24,4.59.43,8.77-1.39,13.11-2.34,3.48-.76,6.96-1.09,10.44-.07,5.38,1.57,8.88,5.94,9.45,11.79.66,6.73,1.31,13.46,1.95,20.19.24,2.49,1.05,4.65,3.17,6.2,1.02.74.94,1.84-.13,2.57-3.78,2.59-7.56,5.18-11.37,7.73-1.66,1.11-3.74.17-4.01-1.86-.36-2.71-.54-5.45-.84-8.56-.37,1.02-.64,1.74-.9,2.47-2.33,6.48-7.81,9.69-14.63,8.69-6.76-.99-11.86-4.2-14.41-10.73-2.23-5.71-.29-11.27,4.89-14.58,3.54-2.27,7.56-3.28,11.56-4.32,3.82-.99,7.65-1.95,11.65-2.97-.35-2.06-.54-4-1.02-5.88-1.19-4.69-4.95-6.34-9.29-4.14-3.46,1.76-5.73,4.72-7.91,7.8-.4.56-1.14.87-1.73,1.3-.15-.16-.29-.32-.44-.48ZM1987.09,1844c-.91.28-1.62.44-2.26.72-3.26,1.41-6.75,2.47-9.69,4.38-3.7,2.4-4.7,6.4-4.11,10.65.59,4.24,3.3,6.81,7.23,8.19,1.55.55,3.09.52,4.46-.54,3.38-2.61,5.33-6.24,5.47-10.32.15-4.25-.68-8.53-1.1-13.07Z"/>
    <path class="cls-4" d="M1910.77,1848.19c-.06,6.81-1.32,12.65-5.32,17.56-5.1,6.26-12.04,8.21-19.76,7.95-9.99-.34-17.67-5.8-20.89-14.86-2.19-6.18-2.25-12.49-.55-18.81,1.37-5.09,4.07-9.3,8.5-12.26,4.99-3.34,10.61-4.34,16.48-3.92,5.32.39,10.17,2.13,14.11,5.86,5.48,5.19,7.37,11.8,7.42,18.48ZM1899.2,1860.54c-.53-10.59-3.12-19.19-8.5-26.86-1.75-2.49-3.8-4.72-6.64-6-3.23-1.46-5.98-.53-7.61,2.6-1.58,3.03-1.85,6.33-1.59,9.64.65,8.1,3.06,15.66,7.49,22.5,1.99,3.07,4.3,5.89,7.75,7.45,3.2,1.44,6.22.48,7.49-2.78.95-2.45,1.27-5.14,1.6-6.55Z"/>
    <path class="cls-4" d="M1861.35,1848.9c.09,6.09-1.19,11.81-5.07,16.65-5.44,6.79-12.89,8.69-21.16,8.04-7.37-.59-13.38-3.77-17.42-10.16-2.96-4.69-3.95-9.91-3.87-15.38.06-3.77.62-7.45,2.09-10.96,2.72-6.47,7.51-10.57,14.27-12.35,6.07-1.6,12.11-1.49,17.88,1.1,8.65,3.89,12.44,11.11,13.25,20.21.08.94.01,1.9.01,2.85ZM1849.89,1860.39c-.52-10.08-2.95-18.29-7.8-25.71-1.79-2.73-3.89-5.21-6.85-6.77-3.63-1.91-7.14-.81-8.4,3.08-.87,2.71-1.38,5.7-1.25,8.53.39,8.36,3.01,16.11,7.6,23.13,1.91,2.92,4.13,5.58,7.41,7.11,3.41,1.59,6.53.57,7.81-2.93.89-2.42,1.18-5.06,1.48-6.44Z"/>
    <path class="cls-4" d="M1660.62,1888.45v-10.71c2.77-.37,5.3-.46,7.69-1.09,2.33-.61,4.56-1.67,6.75-2.73.92-.44,1.28-1.32.74-2.54-5.56-12.49-10.97-25.05-16.63-37.5-1.12-2.47-3.14-4.54-4.7-6.82-.34-.5-.46-1.14-.76-1.91h20.47c-.24.73-.26,1.48-.66,1.88-1.5,1.53-1.65,3.36-1.01,5.14,1.28,3.56,2.76,7.06,4.24,10.55,1.77,4.16,3.64,8.28,5.47,12.41.22.49.47.96.85,1.75,1.86-4.19,3.61-8.08,5.3-12,1.64-3.79,3.32-7.56,4.82-11.41.9-2.3,1.28-4.66-.86-6.68-.31-.3-.23-1.02-.35-1.66h12.34c-.2.68-.19,1.53-.6,1.88-2.4,2.01-3.79,4.67-5.02,7.43-5.71,12.79-11.29,25.64-17.11,38.38-3.27,7.16-8.56,12.35-16.19,14.85-1.21.4-2.51.53-3.77.75-.37.06-.76,0-1.02,0Z"/>
    <path class="cls-4" d="M2028.03,1872.34h-20.52c.15-.66.1-1.46.46-1.78,2.21-1.91,2.73-4.51,2.76-7.14.12-14.27.11-28.54.14-42.8,0-2.24-.75-4.14-2.46-5.65-1.02-.9-.92-1.84.24-2.5,3.97-2.29,7.95-4.56,11.94-6.8,1.54-.87,3.37,0,3.73,1.75.15.7.15,1.44.15,2.17,0,16.9,0,33.8.02,50.7,0,2,.06,4.05.47,6,.29,1.35,1.22,2.57,1.87,3.84.33.63.68,1.25,1.2,2.22Z"/>
    <path class="cls-4" d="M1632.1,1872.32c.25-.74.27-1.53.67-1.89,2-1.82,2.54-4.25,2.57-6.7.16-14.26.21-28.52.25-42.78,0-2.3-.69-4.39-2.52-5.99-1.04-.91-.93-1.84.24-2.51,3.97-2.29,7.94-4.56,11.94-6.79,1.59-.89,3.5.1,3.8,1.91.1.6.06,1.23.06,1.84,0,17.11-.01,34.23.02,51.34,0,1.83.05,3.72.48,5.48.34,1.4,1.29,2.65,1.96,3.98.31.63.6,1.27.99,2.11h-20.45Z"/>
    <path class="cls-4" d="M2048.91,1872.34h-20.49c.2-.71.17-1.51.55-1.85,2.25-2.05,2.62-4.76,2.66-7.51.12-8.22.15-16.44.2-24.66.03-5.37.03-10.74.07-16.11.02-2.82-.42-5.43-2.74-7.43-.86-.74-.74-1.69.36-2.31,4.03-2.29,8.04-4.61,12.09-6.86,1.48-.83,3.39.19,3.7,1.9.11.6.06,1.23.06,1.84,0,17.28-.02,34.56.03,51.84,0,1.88.19,3.8.63,5.63.28,1.19,1.16,2.23,1.76,3.34.33.62.65,1.25,1.13,2.17Z"/>
    <path class="cls-4" d="M1630.51,1872.35h-20.52c.24-.74.26-1.54.66-1.92,1.79-1.65,2.45-3.8,2.51-6.04.19-8.28.26-16.56.3-24.84.01-2.35-.64-4.51-2.55-6.14-.93-.8-1-1.73.2-2.42,4.07-2.33,8.14-4.67,12.24-6.95,1.38-.77,3.21.26,3.55,1.93.12.59.08,1.22.08,1.84,0,11.14-.03,22.27.04,33.41.01,2.05.28,4.13.75,6.12.25,1.07,1.19,1.96,1.78,2.96.33.56.56,1.19.97,2.05Z"/>
    <path class="cls-4" d="M1612.53,1812.6c.1-2.26,1.51-4.81,4.34-6.45,3.77-2.17,8.35.03,9.14,4.32.84,4.6-2.17,9.35-6.3,9.94-4.09.58-7.21-2.38-7.18-7.82Z"/>
  </g>
  <rect class="cls-3" x="1853.98" width="796.89" height="419.9" rx="37.31" ry="37.31"/>
  <g>
    <path class="cls-4" d="M2277.81,235.33c-.19.06-.24.09-.3.1-5.37.29-5.33.28-7.11-4.81-4.75-13.53-9.55-27.05-14.33-40.58-.11-.31-.27-.6-.48-1.07-.21.38-.4.62-.5.89-5.18,14.63-10.38,29.25-15.51,43.89-.46,1.3-1.06,1.79-2.48,1.75-3.86-.11-3.83-.05-5.12-3.68-6.17-17.47-12.34-34.94-18.55-52.41-1.07-3.01-2.29-5.95-4.85-8.1-.37-.31-.4-1.03-.67-1.79h20.37c-.19.66-.18,1.45-.57,1.87-1.41,1.5-1.83,3.25-1.27,5.12,1.14,3.79,2.38,7.56,3.68,11.29,3.19,9.17,6.45,18.32,9.68,27.48.05.16.15.3.38.73,1.11-3.1,2.16-5.99,3.19-8.88,2.92-8.2,5.85-16.4,8.7-24.63.27-.78.25-1.96-.17-2.62-1.72-2.72-3.67-5.3-5.49-7.96-.45-.66-.74-1.42-1.3-2.54,2.81,0,5.03,0,7.25,0,2.69,0,5.38.1,8.06-.04,1.47-.08,2.14.36,2.64,1.77,4.52,12.96,9.12,25.9,13.7,38.85.68,1.94,1.38,3.87,2.22,6.23,1.36-3.81,2.58-7.23,3.78-10.64,3.19-9.05,6.4-18.1,9.56-27.17.33-.94.66-2,.53-2.94-.18-1.32-.79-2.58-1.24-3.85-.23-.65-.54-1.28-.9-2.12h11.68c-.1.67.01,1.42-.31,1.76-3.04,3.22-4.1,7.39-5.52,11.36-6.27,17.56-12.49,35.13-18.74,52.74Z"/>
    <path class="cls-4" d="M2035.42,196.87c3.1-7.77,6.01-10.28,11.52-10.09,6.57.22,11.13,3.9,13.31,10.9.34-1.06.6-1.95.9-2.83,2.38-6.8,7.69-9.5,14.57-7.41,5.79,1.76,9.24,5.92,9.4,12.04.21,7.83.09,15.67.15,23.5.01,1.73.09,3.47.26,5.19.19,1.99.84,3.78,2.34,5.24.43.42.54,1.19.86,1.96h-20.56c.28-.75.34-1.51.75-1.87,1.72-1.54,2.41-3.53,2.49-5.68.17-4.92.21-9.84.21-14.77,0-4.64-.06-9.29-.21-13.93-.04-1.14-.37-2.34-.84-3.38-1.43-3.18-5.71-3.68-7.61-.66-1.2,1.91-2.11,4.34-2.18,6.56-.26,8.83-.18,17.66-.13,26.5.01,2,.81,3.78,2.29,5.25.44.44.59,1.17.97,1.98h-20.62c.3-.76.39-1.54.82-1.94,1.63-1.53,2.37-3.49,2.39-5.56.1-9.57.07-19.14.02-28.7,0-.98-.33-1.98-.65-2.93-.58-1.72-1.75-2.87-3.62-3.06-1.94-.19-3.8.48-4.5,2.26-.98,2.51-1.94,5.2-2.01,7.84-.22,8.43-.14,16.88.12,25.32.05,1.6,1.4,3.16,2.15,4.74.28.6.57,1.19.96,2.01h-20.58c.26-.73.31-1.49.71-1.86,1.84-1.69,2.48-3.89,2.53-6.2.18-8.17.25-16.34.29-24.51.01-2.41-.63-4.61-2.61-6.29-.92-.78-.91-1.73.3-2.41,3.99-2.26,7.95-4.57,11.95-6.79,1.8-1,3.77.23,3.85,2.42.08,2.28.02,4.56.02,7.15Z"/>
    <path class="cls-4" d="M2420.41,188.04c-.15-2.12-.06-4.11-.48-5.98-.3-1.34-1.14-2.63-2-3.75-1.01-1.31-1.06-2.12.33-2.92,3.82-2.2,7.65-4.4,11.49-6.58,1.84-1.04,3.79,0,4,2.12.06.61.04,1.23.04,1.84,0,16.95-.02,33.91.03,50.86,0,2.11.19,4.26.65,6.31.28,1.23,1.28,2.28,1.92,3.44.32.58.57,1.19.99,2.08-2.29,0-4.18.03-6.07,0-5.25-.09-10.54.1-15.76-.39-6.71-.63-12.94-2.78-17.39-8.26-6.31-7.77-5.86-20.87.9-28.77,5.31-6.21,12.22-9.19,20.22-9.92.27-.02.54-.04,1.13-.09ZM2420.12,232.4v-40.09c-.59.14-1.18.23-1.74.43-3.78,1.37-6.47,4.02-8.13,7.56-3.92,8.39-3.84,17-.51,25.51,1.74,4.45,5.87,6.87,10.38,6.58Z"/>
    <path class="cls-4" d="M1974.72,235.47c.33-.87.4-1.62.81-2,1.83-1.7,2.4-3.9,2.5-6.21.16-3.63.15-7.27.16-10.91.02-11.64.03-23.27-.02-34.91,0-2.06-.14-4.15-.58-6.15-.28-1.29-1.24-2.43-1.88-3.65-.32-.62-.61-1.25-1.09-2.25,1.1,0,1.7,0,2.3,0,8.39,0,16.78.07,25.17-.03,3.88-.05,7.76-.43,11.71-.66.49,6.43.99,13.1,1.51,19.89-.62.07-1.08.12-1.47.16-1.02-2.79-1.92-5.49-2.98-8.12-1.89-4.71-5.45-7.23-10.49-7.62-2.78-.21-5.56-.35-8.47-.53v25.65c2.87-.28,5.76-.33,8.54-.9,2.42-.5,3.36-2.64,3.71-4.9.16-1.01.47-1.56,1.78-1.51,1.25,5.08,2.52,10.24,3.79,15.4-.15.16-.3.32-.45.48-.56-.3-1.31-.47-1.65-.93-2.31-3.13-5.43-4.54-9.25-4.57-2.12-.01-4.24,0-6.48,0v31.02c4.56-.12,9.09.32,13.51-.99,3.64-1.08,5.52-3.84,6.61-7.23.72-2.23,1.34-4.49,1.85-6.78.22-1,.57-1.39,1.7-1.07v20.14c-.51,0-1.04.05-1.56,0-2.32-.26-4.64-.79-6.96-.81-10.01-.09-20.03-.04-30.04-.04-.61,0-1.22,0-2.3,0Z"/>
    <path class="cls-4" d="M2447.9,202.68v-12.57c.17-.09.31-.25.45-.24,4.59.43,8.77-1.39,13.11-2.34,3.48-.76,6.96-1.09,10.44-.07,5.38,1.57,8.88,5.94,9.45,11.79.66,6.73,1.31,13.46,1.95,20.19.24,2.49,1.05,4.65,3.17,6.2,1.02.74.94,1.84-.13,2.57-3.78,2.59-7.56,5.18-11.37,7.73-1.66,1.11-3.74.17-4.01-1.86-.36-2.71-.54-5.45-.84-8.56-.37,1.02-.64,1.74-.9,2.47-2.33,6.48-7.81,9.69-14.63,8.69-6.76-.99-11.86-4.2-14.41-10.73-2.23-5.71-.29-11.27,4.89-14.58,3.54-2.27,7.56-3.28,11.56-4.32,3.82-.99,7.65-1.95,11.65-2.97-.35-2.06-.54-4-1.02-5.88-1.19-4.69-4.95-6.34-9.29-4.14-3.46,1.76-5.73,4.72-7.91,7.8-.4.56-1.14.87-1.73,1.3-.15-.16-.29-.32-.44-.48ZM2468.41,207.07c-.91.28-1.62.44-2.26.72-3.26,1.41-6.75,2.47-9.69,4.38-3.7,2.4-4.7,6.4-4.11,10.65.59,4.24,3.3,6.81,7.23,8.19,1.55.55,3.09.52,4.46-.54,3.38-2.61,5.33-6.24,5.47-10.32.15-4.25-.68-8.53-1.1-13.07Z"/>
    <path class="cls-4" d="M2392.09,211.26c-.06,6.81-1.32,12.65-5.32,17.56-5.1,6.26-12.04,8.21-19.76,7.95-9.99-.34-17.67-5.8-20.89-14.86-2.19-6.18-2.25-12.49-.55-18.81,1.37-5.09,4.07-9.3,8.5-12.26,4.99-3.34,10.61-4.34,16.48-3.92,5.32.39,10.17,2.13,14.11,5.86,5.48,5.19,7.37,11.8,7.42,18.48ZM2380.52,223.6c-.53-10.59-3.12-19.19-8.5-26.86-1.75-2.49-3.8-4.72-6.64-6-3.23-1.46-5.98-.53-7.61,2.6-1.58,3.03-1.85,6.33-1.59,9.64.65,8.1,3.06,15.66,7.49,22.5,1.99,3.07,4.3,5.89,7.75,7.45,3.2,1.44,6.22.48,7.49-2.78.95-2.45,1.27-5.14,1.6-6.55Z"/>
    <path class="cls-4" d="M2342.67,211.97c.09,6.09-1.19,11.81-5.07,16.65-5.44,6.79-12.89,8.69-21.16,8.04-7.37-.59-13.38-3.77-17.42-10.16-2.96-4.69-3.95-9.91-3.87-15.38.06-3.77.62-7.45,2.09-10.96,2.72-6.47,7.51-10.57,14.27-12.35,6.07-1.6,12.11-1.49,17.88,1.1,8.65,3.89,12.44,11.11,13.25,20.21.08.94.01,1.9.01,2.85ZM2331.21,223.46c-.52-10.08-2.95-18.29-7.8-25.71-1.79-2.73-3.89-5.21-6.85-6.77-3.63-1.91-7.14-.81-8.4,3.08-.87,2.71-1.38,5.7-1.25,8.53.39,8.36,3.01,16.11,7.6,23.13,1.91,2.92,4.13,5.58,7.41,7.11,3.41,1.59,6.53.57,7.81-2.93.89-2.42,1.18-5.06,1.48-6.44Z"/>
    <path class="cls-4" d="M2141.94,251.51v-10.71c2.77-.37,5.3-.46,7.69-1.09,2.33-.61,4.56-1.67,6.75-2.73.92-.44,1.28-1.32.74-2.54-5.56-12.49-10.97-25.05-16.63-37.5-1.12-2.47-3.14-4.54-4.7-6.82-.34-.5-.46-1.14-.76-1.91h20.47c-.24.73-.26,1.48-.66,1.88-1.5,1.53-1.65,3.36-1.01,5.14,1.28,3.56,2.76,7.06,4.24,10.55,1.77,4.16,3.64,8.28,5.47,12.41.22.49.47.96.85,1.75,1.86-4.19,3.61-8.08,5.3-12,1.64-3.79,3.32-7.56,4.82-11.41.9-2.3,1.28-4.66-.86-6.68-.31-.3-.23-1.02-.35-1.66h12.34c-.2.68-.19,1.53-.6,1.88-2.4,2.01-3.79,4.67-5.02,7.43-5.71,12.79-11.29,25.64-17.11,38.38-3.27,7.16-8.56,12.35-16.19,14.85-1.21.4-2.51.53-3.77.75-.37.06-.76,0-1.02,0Z"/>
    <path class="cls-4" d="M2509.35,235.4h-20.52c.15-.66.1-1.46.46-1.78,2.21-1.91,2.73-4.51,2.76-7.14.12-14.27.11-28.54.14-42.8,0-2.24-.75-4.14-2.46-5.65-1.02-.9-.92-1.84.24-2.5,3.97-2.29,7.95-4.56,11.94-6.8,1.54-.87,3.37,0,3.73,1.75.15.7.15,1.44.15,2.17,0,16.9,0,33.8.02,50.7,0,2,.06,4.05.47,6,.29,1.35,1.22,2.57,1.87,3.84.33.63.68,1.25,1.2,2.22Z"/>
    <path class="cls-4" d="M2113.42,235.39c.25-.74.27-1.53.67-1.89,2-1.82,2.54-4.25,2.57-6.7.16-14.26.21-28.52.25-42.78,0-2.3-.69-4.39-2.52-5.99-1.04-.91-.93-1.84.24-2.51,3.97-2.29,7.94-4.56,11.94-6.79,1.59-.89,3.5.1,3.8,1.91.1.6.06,1.23.06,1.84,0,17.11-.01,34.23.02,51.34,0,1.83.05,3.72.48,5.48.34,1.4,1.29,2.65,1.96,3.98.31.63.6,1.27.99,2.11h-20.45Z"/>
    <path class="cls-4" d="M2530.23,235.41h-20.49c.2-.71.17-1.51.55-1.85,2.25-2.05,2.62-4.76,2.66-7.51.12-8.22.15-16.44.2-24.66.03-5.37.03-10.74.07-16.11.02-2.82-.42-5.43-2.74-7.43-.86-.74-.74-1.69.36-2.31,4.03-2.29,8.04-4.61,12.09-6.86,1.48-.83,3.39.19,3.7,1.9.11.6.06,1.23.06,1.84,0,17.28-.02,34.56.03,51.84,0,1.88.19,3.8.63,5.63.28,1.19,1.16,2.23,1.76,3.34.33.62.65,1.25,1.13,2.17Z"/>
    <path class="cls-4" d="M2111.83,235.42h-20.52c.24-.74.26-1.54.66-1.92,1.79-1.65,2.45-3.8,2.51-6.04.19-8.28.26-16.56.3-24.84.01-2.35-.64-4.51-2.55-6.14-.93-.8-1-1.73.2-2.42,4.07-2.33,8.14-4.67,12.24-6.95,1.38-.77,3.21.26,3.55,1.93.12.59.08,1.22.08,1.84,0,11.14-.03,22.27.04,33.41.01,2.05.28,4.13.75,6.12.25,1.07,1.19,1.96,1.78,2.96.33.56.56,1.19.97,2.05Z"/>
    <path class="cls-4" d="M2093.85,175.66c.1-2.26,1.51-4.81,4.34-6.45,3.77-2.17,8.35.03,9.14,4.32.84,4.6-2.17,9.35-6.3,9.94-4.09.58-7.21-2.38-7.18-7.82Z"/>
  </g>
  <rect class="cls-4" x="0" y="78.01" width="796.89" height="419.9" rx="37.31" ry="37.31"/>
  <g>
    <g>
      <path class="cls-5" d="M315.81,351.34c-.17.06-.21.08-.26.08-4.74.26-4.71.24-6.28-4.25-4.2-11.96-8.43-23.9-12.66-35.85-.1-.27-.24-.53-.43-.94-.19.33-.35.55-.44.79-4.58,12.92-9.17,25.84-13.71,38.78-.4,1.15-.93,1.58-2.19,1.55-3.41-.1-3.39-.04-4.52-3.25-5.45-15.44-10.91-30.88-16.39-46.3-.94-2.66-2.02-5.26-4.29-7.16-.33-.28-.36-.91-.6-1.58h17.99c-.17.59-.16,1.28-.5,1.65-1.25,1.33-1.61,2.87-1.12,4.53,1,3.35,2.1,6.68,3.25,9.98,2.82,8.1,5.69,16.19,8.55,24.28.05.14.13.26.33.64.98-2.74,1.91-5.29,2.82-7.85,2.58-7.25,5.17-14.49,7.69-21.76.24-.69.22-1.73-.15-2.31-1.52-2.4-3.24-4.68-4.85-7.03-.4-.58-.65-1.26-1.15-2.25,2.48,0,4.45,0,6.41,0,2.37,0,4.75.09,7.12-.04,1.3-.07,1.89.32,2.33,1.56,4,11.45,8.06,22.89,12.11,34.32.6,1.71,1.22,3.42,1.96,5.5,1.2-3.37,2.28-6.39,3.34-9.41,2.82-8,5.65-15.99,8.44-24,.29-.83.58-1.77.47-2.6-.16-1.16-.7-2.28-1.1-3.4-.21-.57-.47-1.13-.79-1.88h10.32c-.09.59.01,1.26-.27,1.56-2.69,2.84-3.62,6.53-4.88,10.04-5.54,15.51-11.04,31.04-16.56,46.6Z"/>
      <path class="cls-5" d="M441.8,309.55c-.13-1.87-.05-3.63-.43-5.28-.27-1.18-1.01-2.33-1.77-3.31-.89-1.16-.93-1.87.29-2.58,3.38-1.95,6.76-3.89,10.15-5.81,1.63-.92,3.35,0,3.53,1.87.05.54.03,1.09.03,1.63,0,14.98-.02,29.96.03,44.94,0,1.86.17,3.76.57,5.57.25,1.08,1.13,2.02,1.7,3.04.28.51.5,1.05.87,1.84-2.02,0-3.69.02-5.36,0-4.64-.08-9.31.09-13.92-.35-5.92-.56-11.43-2.45-15.37-7.3-5.57-6.86-5.17-18.44.8-25.42,4.69-5.48,10.8-8.12,17.87-8.76.24-.02.48-.04,1-.08ZM441.55,348.75v-35.42c-.52.13-1.05.2-1.53.38-3.34,1.21-5.72,3.55-7.18,6.68-3.47,7.41-3.39,15.02-.45,22.54,1.53,3.93,5.18,6.07,9.17,5.81Z"/>
      <path class="cls-5" d="M466.09,322.49v-11.1c.15-.08.28-.22.4-.21,4.05.38,7.75-1.23,11.58-2.07,3.08-.68,6.15-.96,9.23-.06,4.76,1.39,7.84,5.25,8.35,10.42.58,5.95,1.16,11.89,1.73,17.84.21,2.2.93,4.11,2.8,5.48.9.66.83,1.62-.12,2.27-3.34,2.29-6.68,4.58-10.05,6.83-1.47.98-3.31.15-3.54-1.65-.31-2.4-.48-4.81-.74-7.57-.33.9-.57,1.54-.8,2.18-2.06,5.73-6.9,8.56-12.93,7.68-5.97-.88-10.48-3.71-12.74-9.48-1.97-5.04-.25-9.95,4.32-12.88,3.13-2,6.68-2.89,10.21-3.81,3.37-.88,6.76-1.73,10.29-2.63-.31-1.82-.48-3.54-.9-5.19-1.05-4.14-4.38-5.6-8.21-3.66-3.06,1.55-5.07,4.17-6.99,6.9-.35.5-1.01.77-1.53,1.15-.13-.14-.26-.29-.39-.43ZM484.21,326.36c-.81.25-1.43.39-2,.63-2.88,1.24-5.96,2.18-8.56,3.87-3.27,2.12-4.16,5.65-3.63,9.41.53,3.75,2.92,6.02,6.39,7.24,1.37.48,2.73.46,3.94-.47,2.99-2.31,4.71-5.51,4.84-9.12.14-3.75-.6-7.54-.98-11.55Z"/>
      <path class="cls-5" d="M416.79,330.06c-.05,6.02-1.17,11.18-4.7,15.51-4.5,5.53-10.64,7.26-17.46,7.02-8.83-.3-15.62-5.12-18.46-13.13-1.94-5.46-1.99-11.04-.48-16.62,1.21-4.5,3.6-8.22,7.51-10.83,4.41-2.95,9.37-3.84,14.56-3.46,4.7.34,8.99,1.88,12.47,5.18,4.84,4.58,6.51,10.43,6.56,16.33ZM406.56,340.97c-.47-9.36-2.76-16.96-7.51-23.74-1.54-2.2-3.35-4.17-5.87-5.31-2.85-1.29-5.28-.47-6.72,2.3-1.39,2.68-1.64,5.59-1.4,8.52.57,7.16,2.7,13.84,6.62,19.88,1.76,2.71,3.8,5.2,6.85,6.58,2.82,1.28,5.5.43,6.62-2.45.84-2.16,1.13-4.54,1.42-5.79Z"/>
      <path class="cls-5" d="M373.12,330.69c.08,5.38-1.05,10.43-4.48,14.71-4.81,6-11.39,7.68-18.7,7.1-6.51-.52-11.83-3.33-15.39-8.97-2.62-4.14-3.49-8.75-3.42-13.59.05-3.33.55-6.58,1.85-9.68,2.4-5.72,6.64-9.34,12.61-10.91,5.36-1.42,10.7-1.32,15.8.97,7.64,3.44,10.99,9.82,11.71,17.85.07.83,0,1.68,0,2.52ZM363,340.84c-.46-8.91-2.6-16.16-6.89-22.72-1.58-2.42-3.43-4.6-6.05-5.98-3.21-1.69-6.31-.71-7.42,2.72-.77,2.39-1.22,5.04-1.1,7.54.35,7.39,2.66,14.23,6.71,20.44,1.69,2.58,3.65,4.93,6.54,6.28,3.01,1.4,5.77.5,6.9-2.59.78-2.14,1.04-4.47,1.31-5.69Z"/>
      <path class="cls-5" d="M520.39,351.4h-18.13c.14-.58.08-1.29.41-1.57,1.96-1.69,2.42-3.99,2.43-6.31.1-12.61.09-25.21.12-37.82,0-1.98-.66-3.65-2.17-4.99-.9-.8-.81-1.62.21-2.21,3.51-2.02,7.02-4.03,10.55-6.01,1.37-.77,2.97,0,3.3,1.55.13.62.13,1.28.13,1.92,0,14.93,0,29.86.02,44.79,0,1.77.05,3.58.42,5.3.25,1.2,1.07,2.27,1.65,3.4.29.56.6,1.11,1.06,1.96Z"/>
      <path class="cls-5" d="M538.84,351.4h-18.1c.17-.63.15-1.33.49-1.64,1.98-1.81,2.31-4.2,2.35-6.64.11-7.26.13-14.53.18-21.79.03-4.74.03-9.49.06-14.23.02-2.5-.37-4.79-2.42-6.56-.76-.66-.66-1.49.31-2.04,3.56-2.02,7.11-4.07,10.69-6.06,1.31-.73,3,.17,3.26,1.68.09.53.06,1.08.06,1.63,0,15.27-.01,30.54.03,45.8,0,1.66.17,3.36.55,4.98.25,1.05,1.03,1.97,1.56,2.95.3.55.57,1.1,1,1.92Z"/>
    </g>
    <g>
      <path class="cls-5" d="M359.94,228.43c2.74-6.87,5.31-9.08,10.18-8.92,5.81.19,9.84,3.44,11.76,9.63.3-.94.53-1.73.8-2.5,2.1-6.01,6.79-8.39,12.88-6.54,5.12,1.55,8.16,5.23,8.31,10.63.19,6.92.08,13.84.13,20.76.01,1.53.08,3.07.23,4.59.17,1.76.74,3.34,2.06,4.63.38.37.47,1.05.76,1.73h-18.17c.25-.66.3-1.33.66-1.65,1.52-1.36,2.13-3.12,2.2-5.02.15-4.35.19-8.7.19-13.05,0-4.1-.05-8.21-.19-12.3-.03-1.01-.33-2.06-.75-2.99-1.26-2.81-5.05-3.25-6.72-.59-1.06,1.69-1.86,3.83-1.92,5.8-.23,7.8-.16,15.61-.12,23.41,0,1.77.72,3.34,2.02,4.64.39.39.52,1.04.86,1.75h-18.22c.27-.67.34-1.36.72-1.72,1.44-1.35,2.09-3.09,2.11-4.91.09-8.45.06-16.91.02-25.36,0-.87-.29-1.75-.58-2.59-.51-1.52-1.55-2.54-3.2-2.7-1.72-.17-3.36.42-3.97,2-.87,2.21-1.72,4.6-1.78,6.93-.19,7.45-.12,14.92.1,22.37.04,1.41,1.24,2.79,1.9,4.19.25.53.5,1.05.85,1.78h-18.18c.23-.64.27-1.32.63-1.64,1.63-1.49,2.19-3.44,2.24-5.48.16-7.22.22-14.44.26-21.65.01-2.13-.56-4.07-2.3-5.56-.81-.69-.8-1.53.26-2.13,3.52-2,7.02-4.03,10.56-6,1.59-.88,3.33.21,3.4,2.14.07,2.01.02,4.03.02,6.32Z"/>
      <path class="cls-5" d="M306.3,262.53c.3-.77.35-1.43.72-1.76,1.62-1.5,2.12-3.45,2.21-5.49.14-3.21.13-6.42.14-9.64.01-10.28.03-20.56-.02-30.85,0-1.82-.12-3.67-.51-5.43-.25-1.14-1.1-2.15-1.66-3.23-.29-.55-.54-1.11-.96-1.99.97,0,1.5,0,2.03,0,7.41,0,14.83.06,22.24-.03,3.43-.04,6.86-.38,10.35-.58.43,5.68.88,11.58,1.33,17.58-.54.06-.96.11-1.3.14-.9-2.47-1.7-4.85-2.63-7.17-1.67-4.16-4.81-6.39-9.27-6.73-2.45-.19-4.91-.31-7.48-.47v22.66c2.53-.25,5.09-.29,7.55-.8,2.13-.44,2.97-2.33,3.28-4.33.14-.89.41-1.38,1.58-1.33,1.11,4.49,2.23,9.05,3.35,13.61-.13.14-.27.28-.4.42-.49-.27-1.16-.42-1.46-.83-2.04-2.77-4.8-4.02-8.17-4.04-1.87-.01-3.75,0-5.72,0v27.41c4.03-.11,8.03.28,11.94-.88,3.21-.95,4.87-3.39,5.84-6.39.64-1.97,1.18-3.97,1.63-5.99.2-.88.51-1.23,1.5-.94v17.8c-.45,0-.92.04-1.38,0-2.05-.23-4.1-.69-6.15-.71-8.85-.08-17.7-.03-26.54-.03-.54,0-1.08,0-2.03,0Z"/>
      <path class="cls-5" d="M454.05,276.71v-9.46c2.44-.33,4.68-.41,6.8-.96,2.06-.54,4.03-1.48,5.96-2.41.82-.39,1.13-1.17.65-2.25-4.91-11.04-9.69-22.14-14.69-33.14-.99-2.19-2.78-4.01-4.15-6.03-.3-.44-.41-1.01-.67-1.68h18.09c-.21.64-.23,1.31-.58,1.66-1.33,1.35-1.46,2.97-.89,4.54,1.13,3.15,2.44,6.24,3.75,9.32,1.57,3.68,3.21,7.31,4.83,10.97.19.43.41.85.75,1.55,1.64-3.7,3.19-7.14,4.69-10.6,1.45-3.35,2.93-6.68,4.26-10.08.79-2.03,1.13-4.12-.76-5.9-.28-.26-.2-.9-.31-1.47h10.91c-.18.6-.17,1.35-.53,1.66-2.12,1.78-3.35,4.13-4.44,6.57-5.04,11.3-9.98,22.66-15.12,33.91-2.89,6.32-7.57,10.92-14.31,13.12-1.07.35-2.22.47-3.33.67-.33.06-.67,0-.9,0Z"/>
      <path class="cls-5" d="M428.86,262.46c.22-.66.24-1.35.59-1.67,1.77-1.61,2.25-3.75,2.27-5.92.14-12.6.19-25.2.22-37.8,0-2.03-.61-3.88-2.23-5.29-.92-.8-.82-1.63.21-2.22,3.51-2.02,7.02-4.03,10.55-6,1.4-.78,3.09.09,3.35,1.69.09.53.05,1.08.05,1.63,0,15.12,0,30.24.02,45.36,0,1.62.05,3.28.42,4.84.3,1.24,1.14,2.34,1.73,3.51.28.55.53,1.12.88,1.87h-18.07Z"/>
      <path class="cls-5" d="M427.45,262.49h-18.14c.21-.65.23-1.36.59-1.69,1.58-1.46,2.17-3.36,2.22-5.34.17-7.31.23-14.63.26-21.95,0-2.08-.56-3.98-2.26-5.43-.82-.7-.89-1.53.18-2.14,3.6-2.06,7.19-4.13,10.82-6.14,1.22-.68,2.84.23,3.14,1.71.11.53.07,1.08.07,1.62,0,9.84-.03,19.68.03,29.52.01,1.81.25,3.65.66,5.41.22.94,1.05,1.73,1.57,2.62.29.5.5,1.05.85,1.81Z"/>
      <path class="cls-5" d="M411.56,209.69c.09-2,1.33-4.25,3.84-5.7,3.33-1.92,7.38.02,8.07,3.82.74,4.06-1.92,8.27-5.57,8.79-3.61.51-6.37-2.1-6.34-6.91Z"/>
    </g>
    <circle class="cls-2" cx="398.45" cy="287.96" r="174.95"/>
  </g>
  <g>
    <g>
      <path class="cls-5" d="M1168.56,351.34c-.17.06-.21.08-.26.08-4.74.26-4.71.24-6.28-4.25-4.2-11.96-8.43-23.9-12.66-35.85-.1-.27-.24-.53-.43-.94-.19.33-.35.55-.44.79-4.58,12.92-9.17,25.84-13.71,38.78-.4,1.15-.93,1.58-2.19,1.55-3.41-.1-3.39-.04-4.52-3.25-5.45-15.44-10.91-30.88-16.39-46.3-.94-2.66-2.02-5.26-4.29-7.16-.33-.28-.36-.91-.6-1.58h17.99c-.17.59-.16,1.28-.5,1.65-1.25,1.33-1.61,2.87-1.12,4.53,1,3.35,2.1,6.68,3.25,9.98,2.82,8.1,5.69,16.19,8.55,24.28.05.14.13.26.33.64.98-2.74,1.91-5.29,2.82-7.85,2.58-7.25,5.17-14.49,7.69-21.76.24-.69.22-1.73-.15-2.31-1.52-2.4-3.24-4.68-4.85-7.03-.4-.58-.65-1.26-1.15-2.25,2.48,0,4.45,0,6.41,0,2.37,0,4.75.09,7.12-.04,1.3-.07,1.89.32,2.33,1.56,4,11.45,8.06,22.89,12.11,34.32.6,1.71,1.22,3.42,1.96,5.5,1.2-3.37,2.28-6.39,3.34-9.41,2.82-8,5.65-15.99,8.44-24,.29-.83.58-1.77.47-2.6-.16-1.16-.7-2.28-1.1-3.4-.21-.57-.47-1.13-.79-1.88h10.32c-.09.59.01,1.26-.27,1.56-2.69,2.84-3.62,6.53-4.88,10.04-5.54,15.51-11.04,31.04-16.56,46.6Z"/>
      <path class="cls-5" d="M1294.56,309.55c-.13-1.87-.05-3.63-.43-5.28-.27-1.18-1.01-2.33-1.77-3.31-.89-1.16-.93-1.87.29-2.58,3.38-1.95,6.76-3.89,10.15-5.81,1.63-.92,3.35,0,3.53,1.87.05.54.03,1.09.03,1.63,0,14.98-.02,29.96.03,44.94,0,1.86.17,3.76.57,5.57.25,1.08,1.13,2.02,1.7,3.04.28.51.5,1.05.87,1.84-2.02,0-3.69.02-5.36,0-4.64-.08-9.31.09-13.92-.35-5.92-.56-11.43-2.45-15.37-7.3-5.57-6.86-5.17-18.44.8-25.42,4.69-5.48,10.8-8.12,17.87-8.76.24-.02.48-.04,1-.08ZM1294.31,348.75v-35.42c-.52.13-1.05.2-1.53.38-3.34,1.21-5.72,3.55-7.18,6.68-3.47,7.41-3.39,15.02-.45,22.54,1.53,3.93,5.18,6.07,9.17,5.81Z"/>
      <path class="cls-5" d="M1318.85,322.49v-11.1c.15-.08.28-.22.4-.21,4.05.38,7.75-1.23,11.58-2.07,3.08-.68,6.15-.96,9.23-.06,4.76,1.39,7.84,5.25,8.35,10.42.58,5.95,1.16,11.89,1.73,17.84.21,2.2.93,4.11,2.8,5.48.9.66.83,1.62-.12,2.27-3.34,2.29-6.68,4.58-10.05,6.83-1.47.98-3.31.15-3.54-1.65-.31-2.4-.48-4.81-.74-7.57-.33.9-.57,1.54-.8,2.18-2.06,5.73-6.9,8.56-12.93,7.68-5.97-.88-10.48-3.71-12.74-9.48-1.97-5.04-.25-9.95,4.32-12.88,3.13-2,6.68-2.89,10.21-3.81,3.37-.88,6.76-1.73,10.29-2.63-.31-1.82-.48-3.54-.9-5.19-1.05-4.14-4.38-5.6-8.21-3.66-3.06,1.55-5.07,4.17-6.99,6.9-.35.5-1.01.77-1.53,1.15-.13-.14-.26-.29-.39-.43ZM1336.97,326.36c-.81.25-1.43.39-2,.63-2.88,1.24-5.96,2.18-8.56,3.87-3.27,2.12-4.16,5.65-3.63,9.41.53,3.75,2.92,6.02,6.39,7.24,1.37.48,2.73.46,3.94-.47,2.99-2.31,4.71-5.51,4.84-9.12.14-3.75-.6-7.54-.98-11.55Z"/>
      <path class="cls-5" d="M1269.54,330.06c-.05,6.02-1.17,11.18-4.7,15.51-4.5,5.53-10.64,7.26-17.46,7.02-8.83-.3-15.62-5.12-18.46-13.13-1.94-5.46-1.99-11.04-.48-16.62,1.21-4.5,3.6-8.22,7.51-10.83,4.41-2.95,9.37-3.84,14.56-3.46,4.7.34,8.99,1.88,12.47,5.18,4.84,4.58,6.51,10.43,6.56,16.33ZM1259.31,340.97c-.47-9.36-2.76-16.96-7.51-23.74-1.54-2.2-3.35-4.17-5.87-5.31-2.85-1.29-5.28-.47-6.72,2.3-1.39,2.68-1.64,5.59-1.4,8.52.57,7.16,2.7,13.84,6.62,19.88,1.76,2.71,3.8,5.2,6.85,6.58,2.82,1.28,5.5.43,6.62-2.45.84-2.16,1.13-4.54,1.42-5.79Z"/>
      <path class="cls-5" d="M1225.87,330.69c.08,5.38-1.05,10.43-4.48,14.71-4.81,6-11.39,7.68-18.7,7.1-6.51-.52-11.83-3.33-15.39-8.97-2.62-4.14-3.49-8.75-3.42-13.59.05-3.33.55-6.58,1.85-9.68,2.4-5.72,6.64-9.34,12.61-10.91,5.36-1.42,10.7-1.32,15.8.97,7.64,3.44,10.99,9.82,11.71,17.85.07.83,0,1.68,0,2.52ZM1215.75,340.84c-.46-8.91-2.6-16.16-6.89-22.72-1.58-2.42-3.43-4.6-6.05-5.98-3.21-1.69-6.31-.71-7.42,2.72-.77,2.39-1.22,5.04-1.1,7.54.35,7.39,2.66,14.23,6.71,20.44,1.69,2.58,3.65,4.93,6.54,6.28,3.01,1.4,5.77.5,6.9-2.59.78-2.14,1.04-4.47,1.31-5.69Z"/>
      <path class="cls-5" d="M1373.15,351.4h-18.13c.14-.58.08-1.29.41-1.57,1.96-1.69,2.42-3.99,2.43-6.31.1-12.61.09-25.21.12-37.82,0-1.98-.66-3.65-2.17-4.99-.9-.8-.81-1.62.21-2.21,3.51-2.02,7.02-4.03,10.55-6.01,1.37-.77,2.97,0,3.3,1.55.13.62.13,1.28.13,1.92,0,14.93,0,29.86.02,44.79,0,1.77.05,3.58.42,5.3.25,1.2,1.07,2.27,1.65,3.4.29.56.6,1.11,1.06,1.96Z"/>
      <path class="cls-5" d="M1391.6,351.4h-18.1c.17-.63.15-1.33.49-1.64,1.98-1.81,2.31-4.2,2.35-6.64.11-7.26.13-14.53.18-21.79.03-4.74.03-9.49.06-14.23.02-2.5-.37-4.79-2.42-6.56-.76-.66-.66-1.49.31-2.04,3.56-2.02,7.11-4.07,10.69-6.06,1.31-.73,3,.17,3.26,1.68.09.53.06,1.08.06,1.63,0,15.27-.01,30.54.03,45.8,0,1.66.17,3.36.55,4.98.25,1.05,1.03,1.97,1.56,2.95.3.55.57,1.1,1,1.92Z"/>
    </g>
    <g>
      <path class="cls-5" d="M1212.69,228.43c2.74-6.87,5.31-9.08,10.18-8.92,5.81.19,9.84,3.44,11.76,9.63.3-.94.53-1.73.8-2.5,2.1-6.01,6.79-8.39,12.88-6.54,5.12,1.55,8.16,5.23,8.31,10.63.19,6.92.08,13.84.13,20.76.01,1.53.08,3.07.23,4.59.17,1.76.74,3.34,2.06,4.63.38.37.47,1.05.76,1.73h-18.17c.25-.66.3-1.33.66-1.65,1.52-1.36,2.13-3.12,2.2-5.02.15-4.35.19-8.7.19-13.05,0-4.1-.05-8.21-.19-12.3-.03-1.01-.33-2.06-.75-2.99-1.26-2.81-5.05-3.25-6.72-.59-1.06,1.69-1.86,3.83-1.92,5.8-.23,7.8-.16,15.61-.12,23.41,0,1.77.72,3.34,2.02,4.64.39.39.52,1.04.86,1.75h-18.22c.27-.67.34-1.36.72-1.72,1.44-1.35,2.09-3.09,2.11-4.91.09-8.45.06-16.91.02-25.36,0-.87-.29-1.75-.58-2.59-.51-1.52-1.55-2.54-3.2-2.7-1.72-.17-3.36.42-3.97,2-.87,2.21-1.72,4.6-1.78,6.93-.19,7.45-.12,14.92.1,22.37.04,1.41,1.24,2.79,1.9,4.19.25.53.5,1.05.85,1.78h-18.18c.23-.64.27-1.32.63-1.64,1.63-1.49,2.19-3.44,2.24-5.48.16-7.22.22-14.44.26-21.65.01-2.13-.56-4.07-2.3-5.56-.81-.69-.8-1.53.26-2.13,3.52-2,7.02-4.03,10.56-6,1.59-.88,3.33.21,3.4,2.14.07,2.01.02,4.03.02,6.32Z"/>
      <path class="cls-5" d="M1159.05,262.53c.3-.77.35-1.43.72-1.76,1.62-1.5,2.12-3.45,2.21-5.49.14-3.21.13-6.42.14-9.64.01-10.28.03-20.56-.02-30.85,0-1.82-.12-3.67-.51-5.43-.25-1.14-1.1-2.15-1.66-3.23-.29-.55-.54-1.11-.96-1.99.97,0,1.5,0,2.03,0,7.41,0,14.83.06,22.24-.03,3.43-.04,6.86-.38,10.35-.58.43,5.68.88,11.58,1.33,17.58-.54.06-.96.11-1.3.14-.9-2.47-1.7-4.85-2.63-7.17-1.67-4.16-4.81-6.39-9.27-6.73-2.45-.19-4.91-.31-7.48-.47v22.66c2.53-.25,5.09-.29,7.55-.8,2.13-.44,2.97-2.33,3.28-4.33.14-.89.41-1.38,1.58-1.33,1.11,4.49,2.23,9.05,3.35,13.61-.13.14-.27.28-.4.42-.49-.27-1.16-.42-1.46-.83-2.04-2.77-4.8-4.02-8.17-4.04-1.87-.01-3.75,0-5.72,0v27.41c4.03-.11,8.03.28,11.94-.88,3.21-.95,4.87-3.39,5.84-6.39.64-1.97,1.18-3.97,1.63-5.99.2-.88.51-1.23,1.5-.94v17.8c-.45,0-.92.04-1.38,0-2.05-.23-4.1-.69-6.15-.71-8.85-.08-17.7-.03-26.54-.03-.54,0-1.08,0-2.03,0Z"/>
      <path class="cls-5" d="M1306.81,276.71v-9.46c2.44-.33,4.68-.41,6.8-.96,2.06-.54,4.03-1.48,5.96-2.41.82-.39,1.13-1.17.65-2.25-4.91-11.04-9.69-22.14-14.69-33.14-.99-2.19-2.78-4.01-4.15-6.03-.3-.44-.41-1.01-.67-1.68h18.09c-.21.64-.23,1.31-.58,1.66-1.33,1.35-1.46,2.97-.89,4.54,1.13,3.15,2.44,6.24,3.75,9.32,1.57,3.68,3.21,7.31,4.83,10.97.19.43.41.85.75,1.55,1.64-3.7,3.19-7.14,4.69-10.6,1.45-3.35,2.93-6.68,4.26-10.08.79-2.03,1.13-4.12-.76-5.9-.28-.26-.2-.9-.31-1.47h10.91c-.18.6-.17,1.35-.53,1.66-2.12,1.78-3.35,4.13-4.44,6.57-5.04,11.3-9.98,22.66-15.12,33.91-2.89,6.32-7.57,10.92-14.31,13.12-1.07.35-2.22.47-3.33.67-.33.06-.67,0-.9,0Z"/>
      <path class="cls-5" d="M1281.61,262.46c.22-.66.24-1.35.59-1.67,1.77-1.61,2.25-3.75,2.27-5.92.14-12.6.19-25.2.22-37.8,0-2.03-.61-3.88-2.23-5.29-.92-.8-.82-1.63.21-2.22,3.51-2.02,7.02-4.03,10.55-6,1.4-.78,3.09.09,3.35,1.69.09.53.05,1.08.05,1.63,0,15.12,0,30.24.02,45.36,0,1.62.05,3.28.42,4.84.3,1.24,1.14,2.34,1.73,3.51.28.55.53,1.12.88,1.87h-18.07Z"/>
      <path class="cls-5" d="M1280.2,262.49h-18.14c.21-.65.23-1.36.59-1.69,1.58-1.46,2.17-3.36,2.22-5.34.17-7.31.23-14.63.26-21.95,0-2.08-.56-3.98-2.26-5.43-.82-.7-.89-1.53.18-2.14,3.6-2.06,7.19-4.13,10.82-6.14,1.22-.68,2.84.23,3.14,1.71.11.53.07,1.08.07,1.62,0,9.84-.03,19.68.03,29.52.01,1.81.25,3.65.66,5.41.22.94,1.05,1.73,1.57,2.62.29.5.5,1.05.85,1.81Z"/>
      <path class="cls-5" d="M1264.31,209.69c.09-2,1.33-4.25,3.84-5.7,3.33-1.92,7.38.02,8.07,3.82.74,4.06-1.92,8.27-5.57,8.79-3.61.51-6.37-2.1-6.34-6.91Z"/>
    </g>
    <circle class="cls-1" cx="1251.2" cy="287.96" r="174.95"/>
  </g>
  <g>
    <path class="cls-5" d="M1276.59,830.9c-.19.06-.24.09-.3.1-5.37.29-5.33.28-7.11-4.81-4.75-13.53-9.55-27.05-14.33-40.58-.11-.31-.27-.6-.48-1.07-.21.38-.4.62-.5.89-5.18,14.63-10.38,29.25-15.51,43.89-.46,1.3-1.06,1.79-2.48,1.75-3.86-.11-3.83-.05-5.12-3.68-6.17-17.47-12.34-34.94-18.55-52.41-1.07-3.01-2.29-5.95-4.85-8.1-.37-.31-.4-1.03-.67-1.79h20.37c-.19.66-.18,1.45-.57,1.87-1.41,1.5-1.83,3.25-1.27,5.12,1.14,3.79,2.38,7.56,3.68,11.29,3.19,9.17,6.45,18.32,9.68,27.48.05.16.15.3.38.73,1.11-3.1,2.16-5.99,3.19-8.88,2.92-8.2,5.85-16.4,8.7-24.63.27-.78.25-1.96-.17-2.62-1.72-2.72-3.67-5.3-5.49-7.96-.45-.66-.74-1.42-1.3-2.54,2.81,0,5.03,0,7.25,0,2.69,0,5.38.1,8.06-.04,1.47-.08,2.14.36,2.64,1.77,4.52,12.96,9.12,25.9,13.7,38.85.68,1.94,1.38,3.87,2.22,6.23,1.36-3.81,2.58-7.23,3.78-10.64,3.19-9.05,6.4-18.1,9.56-27.17.33-.94.66-2,.53-2.94-.18-1.32-.79-2.58-1.24-3.85-.23-.65-.54-1.28-.9-2.12h11.68c-.1.67.01,1.42-.31,1.76-3.04,3.22-4.1,7.39-5.52,11.36-6.27,17.56-12.49,35.13-18.74,52.74Z"/>
    <path class="cls-5" d="M1034.2,792.44c3.1-7.77,6.01-10.28,11.52-10.09,6.57.22,11.13,3.9,13.31,10.9.34-1.06.6-1.95.9-2.83,2.38-6.8,7.69-9.5,14.57-7.41,5.79,1.76,9.24,5.92,9.4,12.04.21,7.83.09,15.67.15,23.5.01,1.73.09,3.47.26,5.19.19,1.99.84,3.78,2.34,5.24.43.42.54,1.19.86,1.96h-20.56c.28-.75.34-1.51.75-1.87,1.72-1.54,2.41-3.53,2.49-5.68.17-4.92.21-9.84.21-14.77,0-4.64-.06-9.29-.21-13.93-.04-1.14-.37-2.34-.84-3.38-1.43-3.18-5.71-3.68-7.61-.66-1.2,1.91-2.11,4.34-2.18,6.56-.26,8.83-.18,17.66-.13,26.5.01,2,.81,3.78,2.29,5.25.44.44.59,1.17.97,1.98h-20.62c.3-.76.39-1.54.82-1.94,1.63-1.53,2.37-3.49,2.39-5.56.1-9.57.07-19.14.02-28.7,0-.98-.33-1.98-.65-2.93-.58-1.72-1.75-2.87-3.62-3.06-1.94-.19-3.8.48-4.5,2.26-.98,2.51-1.94,5.2-2.01,7.84-.22,8.43-.14,16.88.12,25.32.05,1.6,1.4,3.16,2.15,4.74.28.6.57,1.19.96,2.01h-20.58c.26-.73.31-1.49.71-1.86,1.84-1.69,2.48-3.89,2.53-6.2.18-8.17.25-16.34.29-24.51.01-2.41-.63-4.61-2.61-6.29-.92-.78-.91-1.73.3-2.41,3.99-2.26,7.95-4.57,11.95-6.79,1.8-1,3.77.23,3.85,2.42.08,2.28.02,4.56.02,7.15Z"/>
    <path class="cls-5" d="M1419.18,783.6c-.15-2.12-.06-4.11-.48-5.98-.3-1.34-1.14-2.63-2-3.75-1.01-1.31-1.06-2.12.33-2.92,3.82-2.2,7.65-4.4,11.49-6.58,1.84-1.04,3.79,0,4,2.12.06.61.04,1.23.04,1.84,0,16.95-.02,33.91.03,50.86,0,2.11.19,4.26.65,6.31.28,1.23,1.28,2.28,1.92,3.44.32.58.57,1.19.99,2.08-2.29,0-4.18.03-6.07,0-5.25-.09-10.54.1-15.76-.39-6.71-.63-12.94-2.78-17.39-8.26-6.31-7.77-5.86-20.87.9-28.77,5.31-6.21,12.22-9.19,20.22-9.92.27-.02.54-.04,1.13-.09ZM1418.9,827.97v-40.09c-.59.14-1.18.23-1.74.43-3.78,1.37-6.47,4.02-8.13,7.56-3.92,8.39-3.84,17-.51,25.51,1.74,4.45,5.87,6.87,10.38,6.58Z"/>
    <path class="cls-5" d="M973.49,831.03c.33-.87.4-1.62.81-2,1.83-1.7,2.4-3.9,2.5-6.21.16-3.63.15-7.27.16-10.91.02-11.64.03-23.27-.02-34.91,0-2.06-.14-4.15-.58-6.15-.28-1.29-1.24-2.43-1.88-3.65-.32-.62-.61-1.25-1.09-2.25,1.1,0,1.7,0,2.3,0,8.39,0,16.78.07,25.17-.03,3.88-.05,7.76-.43,11.71-.66.49,6.43.99,13.1,1.51,19.89-.62.07-1.08.12-1.47.16-1.02-2.79-1.92-5.49-2.98-8.12-1.89-4.71-5.45-7.23-10.49-7.62-2.78-.21-5.56-.35-8.47-.53v25.65c2.87-.28,5.76-.33,8.54-.9,2.42-.5,3.36-2.64,3.71-4.9.16-1.01.47-1.56,1.78-1.51,1.25,5.08,2.52,10.24,3.79,15.4-.15.16-.3.32-.45.48-.56-.3-1.31-.47-1.65-.93-2.31-3.13-5.43-4.54-9.25-4.57-2.12-.01-4.24,0-6.48,0v31.02c4.56-.12,9.09.32,13.51-.99,3.64-1.08,5.52-3.84,6.61-7.23.72-2.23,1.34-4.49,1.85-6.78.22-1,.57-1.39,1.7-1.07v20.14c-.51,0-1.04.05-1.56,0-2.32-.26-4.64-.79-6.96-.81-10.01-.09-20.03-.04-30.04-.04-.61,0-1.22,0-2.3,0Z"/>
    <path class="cls-5" d="M1446.68,798.25v-12.57c.17-.09.31-.25.45-.24,4.59.43,8.77-1.39,13.11-2.34,3.48-.76,6.96-1.09,10.44-.07,5.38,1.57,8.88,5.94,9.45,11.79.66,6.73,1.31,13.46,1.95,20.19.24,2.49,1.05,4.65,3.17,6.2,1.02.74.94,1.84-.13,2.57-3.78,2.59-7.56,5.18-11.37,7.73-1.66,1.11-3.74.17-4.01-1.86-.36-2.71-.54-5.45-.84-8.56-.37,1.02-.64,1.74-.9,2.47-2.33,6.48-7.81,9.69-14.63,8.69-6.76-.99-11.86-4.2-14.41-10.73-2.23-5.71-.29-11.27,4.89-14.58,3.54-2.27,7.56-3.28,11.56-4.32,3.82-.99,7.65-1.95,11.65-2.97-.35-2.06-.54-4-1.02-5.88-1.19-4.69-4.95-6.34-9.29-4.14-3.46,1.76-5.73,4.72-7.91,7.8-.4.56-1.14.87-1.73,1.3-.15-.16-.29-.32-.44-.48ZM1467.18,802.64c-.91.28-1.62.44-2.26.72-3.26,1.41-6.75,2.47-9.69,4.38-3.7,2.4-4.7,6.4-4.11,10.65.59,4.24,3.3,6.81,7.23,8.19,1.55.55,3.09.52,4.46-.54,3.38-2.61,5.33-6.24,5.47-10.32.15-4.25-.68-8.53-1.1-13.07Z"/>
    <path class="cls-5" d="M1390.87,806.82c-.06,6.81-1.32,12.65-5.32,17.56-5.1,6.26-12.04,8.21-19.76,7.95-9.99-.34-17.67-5.8-20.89-14.86-2.19-6.18-2.25-12.49-.55-18.81,1.37-5.09,4.07-9.3,8.5-12.26,4.99-3.34,10.61-4.34,16.48-3.92,5.32.39,10.17,2.13,14.11,5.86,5.48,5.19,7.37,11.8,7.42,18.48ZM1379.3,819.17c-.53-10.59-3.12-19.19-8.5-26.86-1.75-2.49-3.8-4.72-6.64-6-3.23-1.46-5.98-.53-7.61,2.6-1.58,3.03-1.85,6.33-1.59,9.64.65,8.1,3.06,15.66,7.49,22.5,1.99,3.07,4.3,5.89,7.75,7.45,3.2,1.44,6.22.48,7.49-2.78.95-2.45,1.27-5.14,1.6-6.55Z"/>
    <path class="cls-5" d="M1341.45,807.54c.09,6.09-1.19,11.81-5.07,16.65-5.44,6.79-12.89,8.69-21.16,8.04-7.37-.59-13.38-3.77-17.42-10.16-2.96-4.69-3.95-9.91-3.87-15.38.06-3.77.62-7.45,2.09-10.96,2.72-6.47,7.51-10.57,14.27-12.35,6.07-1.6,12.11-1.49,17.88,1.1,8.65,3.89,12.44,11.11,13.25,20.21.08.94.01,1.9.01,2.85ZM1329.99,819.02c-.52-10.08-2.95-18.29-7.8-25.71-1.79-2.73-3.89-5.21-6.85-6.77-3.63-1.91-7.14-.81-8.4,3.08-.87,2.71-1.38,5.7-1.25,8.53.39,8.36,3.01,16.11,7.6,23.13,1.91,2.92,4.13,5.58,7.41,7.11,3.41,1.59,6.53.57,7.81-2.93.89-2.42,1.18-5.06,1.48-6.44Z"/>
    <path class="cls-5" d="M1140.71,847.08v-10.71c2.77-.37,5.3-.46,7.69-1.09,2.33-.61,4.56-1.67,6.75-2.73.92-.44,1.28-1.32.74-2.54-5.56-12.49-10.97-25.05-16.63-37.5-1.12-2.47-3.14-4.54-4.7-6.82-.34-.5-.46-1.14-.76-1.91h20.47c-.24.73-.26,1.48-.66,1.88-1.5,1.53-1.65,3.36-1.01,5.14,1.28,3.56,2.76,7.06,4.24,10.55,1.77,4.16,3.64,8.28,5.47,12.41.22.49.47.96.85,1.75,1.86-4.19,3.61-8.08,5.3-12,1.64-3.79,3.32-7.56,4.82-11.41.9-2.3,1.28-4.66-.86-6.68-.31-.3-.23-1.02-.35-1.66h12.34c-.2.68-.19,1.53-.6,1.88-2.4,2.01-3.79,4.67-5.02,7.43-5.71,12.79-11.29,25.64-17.11,38.38-3.27,7.16-8.56,12.35-16.19,14.85-1.21.4-2.51.53-3.77.75-.37.06-.76,0-1.02,0Z"/>
    <path class="cls-5" d="M1508.13,830.97h-20.52c.15-.66.1-1.46.46-1.78,2.21-1.91,2.73-4.51,2.76-7.14.12-14.27.11-28.54.14-42.8,0-2.24-.75-4.14-2.46-5.65-1.02-.9-.92-1.84.24-2.5,3.97-2.29,7.95-4.56,11.94-6.8,1.54-.87,3.37,0,3.73,1.75.15.7.15,1.44.15,2.17,0,16.9,0,33.8.02,50.7,0,2,.06,4.05.47,6,.29,1.35,1.22,2.57,1.87,3.84.33.63.68,1.25,1.2,2.22Z"/>
    <path class="cls-5" d="M1112.2,830.96c.25-.74.27-1.53.67-1.89,2-1.82,2.54-4.25,2.57-6.7.16-14.26.21-28.52.25-42.78,0-2.3-.69-4.39-2.52-5.99-1.04-.91-.93-1.84.24-2.51,3.97-2.29,7.94-4.56,11.94-6.79,1.59-.89,3.5.1,3.8,1.91.1.6.06,1.23.06,1.84,0,17.11-.01,34.23.02,51.34,0,1.83.05,3.72.48,5.48.34,1.4,1.29,2.65,1.96,3.98.31.63.6,1.27.99,2.11h-20.45Z"/>
    <path class="cls-5" d="M1529.01,830.97h-20.49c.2-.71.17-1.51.55-1.85,2.25-2.05,2.62-4.76,2.66-7.51.12-8.22.15-16.44.2-24.66.03-5.37.03-10.74.07-16.11.02-2.82-.42-5.43-2.74-7.43-.86-.74-.74-1.69.36-2.31,4.03-2.29,8.04-4.61,12.09-6.86,1.48-.83,3.39.19,3.7,1.9.11.6.06,1.23.06,1.84,0,17.28-.02,34.56.03,51.84,0,1.88.19,3.8.63,5.63.28,1.19,1.16,2.23,1.76,3.34.33.62.65,1.25,1.13,2.17Z"/>
    <path class="cls-5" d="M1110.61,830.98h-20.52c.24-.74.26-1.54.66-1.92,1.79-1.65,2.45-3.8,2.51-6.04.19-8.28.26-16.56.3-24.84.01-2.35-.64-4.51-2.55-6.14-.93-.8-1-1.73.2-2.42,4.07-2.33,8.14-4.67,12.24-6.95,1.38-.77,3.21.26,3.55,1.93.12.59.08,1.22.08,1.84,0,11.14-.03,22.27.04,33.41.01,2.05.28,4.13.75,6.12.25,1.07,1.19,1.96,1.78,2.96.33.56.56,1.19.97,2.05Z"/>
    <path class="cls-5" d="M1092.63,771.23c.1-2.26,1.51-4.81,4.34-6.45,3.77-2.17,8.35.03,9.14,4.32.84,4.6-2.17,9.35-6.3,9.94-4.09.58-7.21-2.38-7.18-7.82Z"/>
  </g>
</svg>