<?xml version="1.0" encoding="UTF-8"?>
<svg id="Layer_1" data-name="Layer 1" xmlns="http://www.w3.org/2000/svg" viewBox="0 0 409.93 216">
  <defs>
    <style>
      .cls-1 {
        fill: none;
        stroke: #005eff;
        stroke-miterlimit: 1;
        stroke-width: 2.73px;
      }

      .cls-2 {
        fill: #19202c;
      }

      .cls-2, .cls-3 {
        stroke-width: 0px;
      }

      .cls-3 {
        fill: #fbf1ef;
      }
    </style>
  </defs>
  <rect class="cls-2" width="409.93" height="216" rx="19.19" ry="19.19"/>
  <g>
    <g>
      <path class="cls-3" d="M162.46,140.6c-.09.03-.11.04-.13.04-2.44.13-2.42.12-3.23-2.19-2.16-6.15-4.34-12.29-6.51-18.44-.05-.14-.12-.27-.22-.48-.1.17-.18.28-.23.41-2.36,6.65-4.72,13.29-7.05,19.95-.21.59-.48.81-1.13.8-1.75-.05-1.74-.02-2.33-1.67-2.8-7.94-5.61-15.88-8.43-23.82-.48-1.37-1.04-2.71-2.21-3.68-.17-.14-.19-.47-.31-.81h9.25c-.09.3-.08.66-.26.85-.64.68-.83,1.48-.58,2.33.51,1.72,1.08,3.44,1.67,5.13,1.45,4.17,2.93,8.33,4.4,12.49.03.07.07.13.17.33.5-1.41.98-2.72,1.45-4.04,1.33-3.73,2.66-7.45,3.96-11.19.12-.35.11-.89-.08-1.19-.78-1.23-1.67-2.41-2.49-3.62-.21-.3-.33-.65-.59-1.16h3.3c1.22,0,2.44.05,3.66-.02.67-.04.97.16,1.2.8,2.06,5.89,4.15,11.77,6.23,17.65.31.88.63,1.76,1.01,2.83.62-1.73,1.17-3.29,1.72-4.84,1.45-4.12,2.91-8.23,4.34-12.35.15-.43.3-.91.24-1.34-.08-.6-.36-1.17-.57-1.75-.11-.29-.24-.58-.41-.97h5.31c-.05.3,0,.65-.14.8-1.38,1.46-1.86,3.36-2.51,5.16-2.85,7.98-5.68,15.97-8.52,23.97h0Z"/>
      <path class="cls-3" d="M227.27,119.11c-.07-.96-.03-1.87-.22-2.72-.14-.61-.52-1.2-.91-1.7-.46-.6-.48-.96.15-1.33,1.74-1,3.48-2,5.22-2.99.84-.47,1.72,0,1.82.96.03.28.02.56.02.84,0,7.71-.01,15.41.02,23.12,0,.96.09,1.93.29,2.87.13.56.58,1.04.87,1.56.14.26.26.54.45.95-1.04,0-1.9.01-2.76,0-2.39-.04-4.79.05-7.16-.18-3.05-.29-5.88-1.26-7.91-3.76-2.87-3.53-2.66-9.49.41-13.08,2.41-2.82,5.56-4.18,9.19-4.51.12-.01.25-.02.51-.04h0ZM227.14,139.27v-18.22c-.27.07-.54.1-.79.2-1.72.62-2.94,1.83-3.69,3.44-1.78,3.81-1.74,7.73-.23,11.59.79,2.02,2.66,3.12,4.72,2.99h0Z"/>
      <path class="cls-3" d="M239.76,125.76v-5.71c.08-.04.14-.11.21-.11,2.08.2,3.99-.63,5.96-1.06,1.58-.35,3.16-.49,4.75-.03,2.45.72,4.03,2.7,4.3,5.36.3,3.06.6,6.12.89,9.18.11,1.13.48,2.11,1.44,2.82.46.34.43.83-.06,1.17-1.72,1.18-3.44,2.36-5.17,3.51-.76.5-1.7.08-1.82-.85-.16-1.23-.25-2.47-.38-3.89-.17.46-.29.79-.41,1.12-1.06,2.95-3.55,4.4-6.65,3.95-3.07-.45-5.39-1.91-6.55-4.88-1.01-2.59-.13-5.12,2.22-6.63,1.61-1.03,3.44-1.49,5.25-1.96,1.73-.45,3.48-.89,5.29-1.35-.16-.94-.25-1.82-.46-2.67-.54-2.13-2.25-2.88-4.22-1.88-1.57.8-2.61,2.15-3.6,3.55-.18.26-.52.4-.79.59-.07-.07-.13-.15-.2-.22h.02ZM249.08,127.75c-.42.13-.74.2-1.03.32-1.48.64-3.07,1.12-4.4,1.99-1.68,1.09-2.14,2.91-1.87,4.84.27,1.93,1.5,3.1,3.29,3.72.7.25,1.4.24,2.03-.24,1.54-1.19,2.42-2.83,2.49-4.69.07-1.93-.31-3.88-.5-5.94h0Z"/>
      <path class="cls-3" d="M214.4,129.66c-.03,3.1-.6,5.75-2.42,7.98-2.31,2.84-5.47,3.73-8.98,3.61-4.54-.15-8.04-2.63-9.5-6.75-1-2.81-1.02-5.68-.25-8.55.62-2.31,1.85-4.23,3.86-5.57,2.27-1.52,4.82-1.98,7.49-1.78,2.42.17,4.62.97,6.41,2.66,2.49,2.36,3.35,5.37,3.37,8.4h0ZM209.14,135.27c-.24-4.81-1.42-8.72-3.86-12.21-.79-1.13-1.72-2.15-3.02-2.73-1.47-.66-2.72-.24-3.46,1.18-.71,1.38-.84,2.88-.72,4.38.29,3.68,1.39,7.12,3.41,10.23.91,1.39,1.95,2.67,3.52,3.38,1.45.66,2.83.22,3.41-1.26.43-1.11.58-2.34.73-2.98h0Z"/>
      <path class="cls-3" d="M191.93,129.98c.04,2.77-.54,5.37-2.3,7.57-2.47,3.09-5.86,3.95-9.62,3.65-3.35-.27-6.09-1.71-7.92-4.61-1.35-2.13-1.8-4.5-1.76-6.99.03-1.71.28-3.38.95-4.98,1.23-2.94,3.42-4.8,6.49-5.61,2.76-.73,5.5-.68,8.13.5,3.93,1.77,5.65,5.05,6.02,9.18.04.43,0,.86,0,1.3h.01ZM186.73,135.2c-.24-4.58-1.34-8.31-3.54-11.69-.81-1.24-1.76-2.37-3.11-3.08-1.65-.87-3.25-.37-3.82,1.4-.4,1.23-.63,2.59-.57,3.88.18,3.8,1.37,7.32,3.45,10.51.87,1.33,1.88,2.54,3.36,3.23,1.55.72,2.97.26,3.55-1.33.4-1.1.54-2.3.67-2.93h0Z"/>
      <path class="cls-3" d="M267.69,140.63h-9.33c.07-.3.04-.66.21-.81,1.01-.87,1.24-2.05,1.25-3.25.05-6.49.05-12.97.06-19.45,0-1.02-.34-1.88-1.12-2.57-.46-.41-.42-.83.11-1.14,1.81-1.04,3.61-2.07,5.43-3.09.7-.4,1.53,0,1.7.8.07.32.07.66.07.99,0,7.68,0,15.36.01,23.04,0,.91.03,1.84.22,2.73.13.62.55,1.17.85,1.75.15.29.31.57.55,1.01h0Z"/>
      <path class="cls-3" d="M277.18,140.63h-9.31c.09-.32.08-.68.25-.84,1.02-.93,1.19-2.16,1.21-3.42.06-3.73.07-7.47.09-11.21.02-2.44.02-4.88.03-7.32.01-1.29-.19-2.46-1.24-3.37-.39-.34-.34-.77.16-1.05,1.83-1.04,3.66-2.09,5.5-3.12.67-.38,1.54.09,1.68.86.05.27.03.56.03.84,0,7.86,0,15.71.02,23.56,0,.85.09,1.73.28,2.56.13.54.53,1.01.8,1.52.15.28.29.57.51.99h-.01Z"/>
    </g>
    <g>
      <path class="cls-3" d="M185.16,77.38c1.41-3.53,2.73-4.67,5.24-4.59,2.99.1,5.06,1.77,6.05,4.95.15-.48.27-.89.41-1.29,1.08-3.09,3.49-4.32,6.63-3.36,2.63.8,4.2,2.69,4.27,5.47.1,3.56.04,7.12.07,10.68,0,.79.04,1.58.12,2.36.09.91.38,1.72,1.06,2.38.2.19.24.54.39.89h-9.35c.13-.34.15-.68.34-.85.78-.7,1.1-1.6,1.13-2.58.08-2.24.1-4.48.1-6.71,0-2.11-.03-4.22-.1-6.33-.02-.52-.17-1.06-.39-1.54-.65-1.45-2.6-1.67-3.46-.3-.55.87-.96,1.97-.99,2.98-.12,4.01-.08,8.03-.06,12.04,0,.91.37,1.72,1.04,2.39.2.2.27.54.44.9h-9.37c.14-.34.17-.7.37-.88.74-.69,1.08-1.59,1.09-2.53.05-4.35.03-8.7.01-13.05,0-.45-.15-.9-.3-1.33-.26-.78-.8-1.31-1.65-1.39-.88-.09-1.73.22-2.04,1.03-.45,1.14-.88,2.37-.92,3.56-.1,3.83-.06,7.67.05,11.51.02.73.64,1.44.98,2.16.13.27.26.54.44.92h-9.35c.12-.33.14-.68.32-.84.84-.77,1.13-1.77,1.15-2.82.08-3.71.11-7.43.13-11.14,0-1.1-.29-2.09-1.18-2.86-.42-.35-.41-.79.13-1.1,1.81-1.03,3.61-2.07,5.43-3.09.82-.45,1.71.11,1.75,1.1.04,1.03.01,2.07.01,3.25h0Z"/>
      <path class="cls-3" d="M157.56,94.92c.15-.4.18-.74.37-.91.83-.77,1.09-1.77,1.14-2.82.07-1.65.07-3.3.07-4.96,0-5.29.02-10.58-.01-15.87,0-.94-.06-1.89-.26-2.79-.13-.59-.57-1.11-.85-1.66-.15-.28-.28-.57-.49-1.02h1.04c3.81,0,7.63.03,11.44-.02,1.76-.02,3.53-.2,5.32-.3.22,2.92.45,5.96.68,9.04-.28.03-.49.06-.67.07-.46-1.27-.87-2.49-1.35-3.69-.86-2.14-2.47-3.29-4.77-3.46-1.26-.1-2.53-.16-3.85-.24v11.66c1.3-.13,2.62-.15,3.88-.41,1.1-.23,1.53-1.2,1.69-2.23.07-.46.21-.71.81-.68.57,2.31,1.15,4.66,1.72,7-.07.07-.14.14-.21.22-.25-.14-.6-.22-.75-.43-1.05-1.42-2.47-2.07-4.2-2.08-.96,0-1.93,0-2.94,0v14.1c2.07-.06,4.13.14,6.14-.45,1.65-.49,2.51-1.74,3-3.29.33-1.01.61-2.04.84-3.08.1-.45.26-.63.77-.48v9.16c-.23,0-.47.02-.71,0-1.05-.12-2.11-.35-3.16-.37-4.55-.04-9.1-.02-13.65-.02h-1.05Z"/>
      <path class="cls-3" d="M233.57,102.21v-4.87c1.26-.17,2.41-.21,3.5-.49,1.06-.28,2.07-.76,3.07-1.24.42-.2.58-.6.33-1.16-2.53-5.68-4.98-11.39-7.56-17.05-.51-1.13-1.43-2.06-2.13-3.1-.15-.23-.21-.52-.34-.86h9.31c-.11.33-.12.67-.3.85-.68.69-.75,1.53-.46,2.34.58,1.62,1.26,3.21,1.93,4.79.81,1.89,1.65,3.76,2.48,5.64.1.22.21.44.39.8.84-1.9,1.64-3.67,2.41-5.45.75-1.72,1.51-3.44,2.19-5.19.41-1.04.58-2.12-.39-3.04-.14-.13-.1-.46-.16-.76h5.61c-.09.31-.09.69-.27.85-1.09.92-1.72,2.12-2.28,3.38-2.59,5.81-5.13,11.66-7.78,17.44-1.49,3.25-3.89,5.62-7.36,6.75-.55.18-1.14.24-1.71.34-.17.03-.34,0-.46,0h0Z"/>
      <path class="cls-3" d="M220.6,94.88c.11-.34.12-.69.3-.86.91-.83,1.16-1.93,1.17-3.05.07-6.48.1-12.96.11-19.44,0-1.04-.31-2-1.15-2.72-.47-.41-.42-.84.11-1.14,1.81-1.04,3.61-2.07,5.43-3.09.72-.4,1.59.05,1.72.87.05.27.03.56.03.84,0,7.78,0,15.56.01,23.33,0,.83.03,1.69.22,2.49.15.64.59,1.2.89,1.81.14.28.27.58.45.96h-9.3,0Z"/>
      <path class="cls-3" d="M219.88,94.9h-9.33c.11-.33.12-.7.3-.87.81-.75,1.12-1.73,1.14-2.75.09-3.76.12-7.53.13-11.29,0-1.07-.29-2.05-1.16-2.79-.42-.36-.46-.79.09-1.1,1.85-1.06,3.7-2.12,5.57-3.16.63-.35,1.46.12,1.62.88.06.27.04.56.04.83,0,5.06-.02,10.12.02,15.19,0,.93.13,1.88.34,2.78.11.48.54.89.81,1.35.15.26.26.54.44.93h0Z"/>
      <path class="cls-3" d="M211.71,67.74c.05-1.03.68-2.19,1.98-2.93,1.71-.99,3.8.01,4.15,1.97.38,2.09-.99,4.25-2.87,4.52-1.86.26-3.28-1.08-3.26-3.55Z"/>
    </g>
    <circle class="cls-1" cx="204.96" cy="108" r="90"/>
  </g>
</svg>