<?xml version="1.0" encoding="utf-8"?>
<!-- Generator: Adobe Illustrator 28.0.0, SVG Export Plug-In . SVG Version: 6.00 Build 0)  -->
<svg version="1.1" id="Layer_1" xmlns="http://www.w3.org/2000/svg" xmlns:xlink="http://www.w3.org/1999/xlink" x="0px" y="0px"
	 viewBox="0 0 612 792" style="enable-background:new 0 0 612 792;" xml:space="preserve">
<style type="text/css">
	.st0{fill:#FFFFFF;}
	.st1{font-family:'BrandonGrotesque-Medium';}
	.st2{font-size:22px;}
	.st3{letter-spacing:2;}
	.st4{font-family:'BrandonGrotesque-Light';}
	.st5{font-size:18px;}
	.st6{letter-spacing:5;}
	.st7{font-size:14px;}
	.st8{letter-spacing:1;}
	.st9{font-size:10px;}
	.st10{font-family:'BrandonGrotesque-Regular';}
	.st11{font-size:12px;}
</style>
<g>
	<rect class="st0" width="612" height="792"/>
	<text transform="matrix(1 0 0 1 23.7248 72.8823)"><tspan x="0" y="0" class="st1 st2 st3">EMILY WOODALL</tspan><tspan x="0" y="21.6" class="st4 st5 st6">PITTSBURGH, PA</tspan></text>
	<text transform="matrix(1 0 0 1 21.591 137.3575)"><tspan x="0" y="0" class="st1 st7 st8">CONTACT</tspan><tspan x="0" y="26.4" class="st4 st9">502-330-6607</tspan><tspan x="0" y="38.4" class="st4 st9">emily.catherine.g@gmail.com</tspan><tspan x="0" y="50.4" class="st4 st9">www.linkedin.com/in/emilycwoodall</tspan><tspan x="0" y="62.4" class="st4 st9">www.behance.net/ecwoodall</tspan></text>
	<text transform="matrix(1 0 0 1 21.5913 500.7121)"><tspan x="0" y="0" class="st1 st7 st8">EDUCATION</tspan><tspan x="0" y="31.2" class="st10 st11">One Point One Yoga</tspan><tspan x="0" y="43.2" class="st4 st9">RYT-200, Yoga Alliance</tspan><tspan x="0" y="55.2" class="st4 st9">01.2023- 12.2023</tspan><tspan x="0" y="67.2" class="st4 st9">200 Hour Yoga Teacher Training</tspan><tspan x="0" y="93.6" class="st10 st11">CareerFoundry</tspan><tspan x="0" y="105.6" class="st4 st9">User Interface Design</tspan><tspan x="0" y="117.6" class="st4 st9">UX Specialization</tspan><tspan x="0" y="129.6" class="st4 st9">03.2023- 12.23</tspan><tspan x="0" y="156" class="st10 st11">University of Cincinnati:</tspan><tspan x="0" y="170.4" class="st10 st11">College of Design, Architecture, Art,</tspan><tspan x="0" y="184.8" class="st10 st11">&amp; Planning</tspan><tspan x="0" y="196.8" class="st4 st9">Fashion Design: Design Track</tspan><tspan x="0" y="208.8" class="st4 st9">2007-2012</tspan><tspan x="0" y="220.8" class="st4 st9">Graduated Cum Laude</tspan><tspan x="0" y="232.8" class="st4 st9">Bachelor’s of Science Degree</tspan></text>
	<text transform="matrix(1 0 0 1 246.3038 137.3579)" class="st1 st7 st8">SUMMARY</text>
	<text transform="matrix(1 0 0 1 246.2557 248.6116)"><tspan x="0" y="0" class="st1 st7 st8">WORK EXPERIENCE</tspan><tspan x="0" y="28.8" class="st10 st11">Designer</tspan><tspan x="0" y="52.8" class="st4 st9">Dick’s Sporting Goods</tspan><tspan x="0" y="64.8" class="st4 st9">2019-2022</tspan><tspan x="0" y="88.8" class="st4 st9">•Designed and managed multiple apparel lines concurrently under rigorous time-frames,</tspan><tspan x="0" y="100.8" class="st4 st9">worldwide factory shutdowns, and raw material and shipping delays</tspan><tspan x="0" y="112.8" class="st4 st9">•Worked with leadership, cross-functional teams, and international merchandising</tspan><tspan x="0" y="124.8" class="st4 st9">partners to understand and work toward company-wide sales, margin, and turn goals</tspan><tspan x="0" y="136.8" class="st4 st9">•Presented seasonal trend and CAD deck along with proto samples to merchant teams</tspan><tspan x="0" y="148.8" class="st4 st9">and leadership during milestone meetings</tspan><tspan x="0" y="160.8" class="st4 st9">•Designed a collaborative capsule collection with high-profile clients</tspan><tspan x="0" y="199.2" class="st10 st11">Associate Designer</tspan><tspan x="0" y="223.2" class="st4 st9">Dick’s Sporting Goods</tspan><tspan x="0" y="235.2" class="st4 st9">2015-2019</tspan><tspan x="0" y="259.2" class="st4 st9">•Designed for two new brands, and a new category</tspan><tspan x="0" y="271.2" class="st4 st9">•Created trend and CAD decks for milestone meetings</tspan><tspan x="0" y="283.2" class="st4 st9">•Worked with cross-functional teams to ensure communications yielded our expected</tspan><tspan x="0" y="295.2" class="st4 st9">results</tspan><tspan x="0" y="307.2" class="st4 st9">•Adhered to company timelines</tspan><tspan x="0" y="333.6" class="st10 st11">Assistant Designer</tspan><tspan x="0" y="357.6" class="st4 st9">Dick’s Sporting Goods</tspan><tspan x="0" y="369.6" class="st4 st9">2012-2015</tspan><tspan x="0" y="393.6" class="st4 st9">•Supported Mens &amp; Womens design teams</tspan><tspan x="0" y="405.6" class="st4 st9">•Helped create seasonal trend that included color, silhouette, fabric, and print</tspan><tspan x="0" y="417.6" class="st4 st9">•Helped to maintain tech packs and update sketches</tspan></text>
	<text transform="matrix(1 0 0 1 21.5909 248.6116)"><tspan x="0" y="0" class="st1 st7 st8">SKILLS</tspan><tspan x="0" y="28.8" class="st4 st11">•</tspan><tspan x="4.25" y="28.8" class="st10 st11">User Interface (UI)</tspan><tspan x="0" y="43.2" class="st4 st11">•</tspan><tspan x="4.25" y="43.2" class="st10 st11">Figma</tspan><tspan x="0" y="57.6" class="st4 st11">•</tspan><tspan x="4.25" y="57.6" class="st10 st11">Mac &amp; PC</tspan><tspan x="0" y="72" class="st4 st11">•</tspan><tspan x="4.25" y="72" class="st10 st11">iOS (Human Interface Guidelines)</tspan><tspan x="0" y="86.4" class="st4 st11">•</tspan><tspan x="4.25" y="86.4" class="st10 st11">Android (Material.i</tspan><tspan x="93.18" y="86.4" class="st10 st11">o)</tspan><tspan x="0" y="100.8" class="st4 st11">•</tspan><tspan x="4.25" y="100.8" class="st10 st11">Wireframing</tspan><tspan x="0" y="115.2" class="st4 st11">•</tspan><tspan x="4.25" y="115.2" class="st10 st11">Responsive Design</tspan><tspan x="0" y="129.6" class="st4 st11">•</tspan><tspan x="4.25" y="129.6" class="st10 st11">Prototyping</tspan><tspan x="0" y="144" class="st4 st11">•</tspan><tspan x="4.25" y="144" class="st10 st11">Adobe Creative Suite</tspan><tspan x="0" y="158.4" class="st4 st11">•</tspan><tspan x="4.25" y="158.4" class="st10 st11">Google Suite</tspan><tspan x="0" y="172.8" class="st4 st11">•</tspan><tspan x="4.25" y="172.8" class="st10 st11">Microsoft Office Suite</tspan><tspan x="0" y="187.2" class="st4 st11">•</tspan><tspan x="4.25" y="187.2" class="st10 st11">Trend Research</tspan><tspan x="0" y="201.6" class="st4 st11">•</tspan><tspan x="4.25" y="201.6" class="st10 st11">Visual Design</tspan></text>
	<text transform="matrix(1 0 0 1 246.5771 163.8575)"><tspan x="0" y="0" class="st4 st9">UI/UX Designer with a background in Apparel Design with experience with visual</tspan><tspan x="0" y="12" class="st4 st9">design and working collaboratively with cross-functional teams.</tspan><tspan x="0" y="24" class="st4 st9">Skilled in creating visually stunning User-Centered Designs for mobile and web,</tspan><tspan x="0" y="36" class="st4 st9">with usability and accessibility as the foundation.</tspan><tspan x="0" y="48" class="st4 st9">Committed to bringing beneficial solutions and ease to as many users’ lives.</tspan></text>
</g>
</svg>
